<svg width="79" height="30" viewBox="0 0 79 30" fill="none" xmlns="http://www.w3.org/2000/svg">
<path d="M7.79834 23.3042L6.60205 1.90527L1.59717 4.00488L1.19434 5.70166L2.90332 4.79834L4.00195 26.7954L20.6035 27.6011C20.6361 27.6011 20.6523 27.3162 20.6523 26.7466C20.6523 25.9491 20.6361 25.2085 20.6035 24.5249C20.571 23.8413 20.5384 23.4995 20.5059 23.4995C20.3512 23.4995 19.7775 23.4914 18.7847 23.4751C17.7837 23.4588 16.2212 23.4344 14.0972 23.4019C11.9731 23.3693 10.5246 23.3449 9.75146 23.3286C8.97835 23.3205 8.32731 23.3123 7.79834 23.3042ZM8.39648 22.4009L21.2017 22.999L21.104 28.2969L3.29395 27.4058L2.19531 6.20215L0.400879 6.60498L0.999023 3.60205L7.2002 1.00195L8.39648 22.4009ZM32.1392 6.60498C31.659 6.22249 31.1504 5.88883 30.6133 5.604C30.0843 5.31917 29.5472 5.11165 29.002 4.98145C28.4648 4.8431 27.9277 4.77393 27.3906 4.77393C26.6908 4.77393 25.9909 4.87972 25.291 5.09131C24.5993 5.29476 23.8872 5.60807 23.1548 6.03125C22.4224 6.45443 21.6777 6.9834 20.9209 7.61816C20.1722 8.24479 19.3787 9.0057 18.5405 9.90088C17.7511 10.7635 17.1571 11.7441 16.7583 12.8428C16.3677 13.9414 16.1724 15.0685 16.1724 16.2241C16.1724 17.5343 16.4165 18.751 16.9048 19.874C17.3931 20.9971 18.0726 21.8719 18.9434 22.4985C19.8955 23.1984 21.0389 23.5483 22.3735 23.5483C23.5291 23.5483 24.7214 23.292 25.9502 22.7793C27.179 22.2666 28.3143 21.6074 29.356 20.8018C30.4058 19.9961 31.2358 19.1945 31.8462 18.397C32.188 17.9494 32.5135 17.4408 32.8228 16.8711C33.1401 16.3014 33.4087 15.7318 33.6284 15.1621C33.8481 14.5924 34.0231 13.9943 34.1533 13.3677C34.2835 12.7329 34.3486 12.1022 34.3486 11.4756C34.3486 9.38411 33.6121 7.76058 32.1392 6.60498ZM32.7495 5.70166C34.6782 7.17464 35.6426 9.13997 35.6426 11.5977C35.6426 12.444 35.5205 13.3188 35.2764 14.2222C35.0404 15.1174 34.7067 15.9759 34.2754 16.7979C33.8441 17.6198 33.368 18.3522 32.8472 18.9951C31.9927 20.0531 31.1463 20.9442 30.3081 21.6685C29.478 22.3927 28.6398 22.9827 27.7935 23.4385C26.9471 23.8861 26.1292 24.2116 25.3398 24.415C24.5505 24.6185 23.7773 24.7202 23.0205 24.7202C21.2627 24.7202 19.6717 24.2482 18.2476 23.3042C17.2873 22.6532 16.4897 21.6359 15.855 20.2524C15.2284 18.869 14.915 17.3838 14.915 15.7969C14.915 13.2497 15.7248 11.0524 17.3442 9.20508C18.2964 8.11458 19.2974 7.14616 20.3472 6.2998C21.397 5.45345 22.4834 4.7902 23.6064 4.31006C24.7295 3.82178 25.877 3.57764 27.0488 3.57764C28.9775 3.57764 30.8778 4.28564 32.7495 5.70166ZM30.3447 8.85107C30.4587 9.29867 30.5156 9.7666 30.5156 10.2549C30.5156 11.3454 30.2349 12.2609 29.6733 13.0015C29.1118 13.7339 28.4201 14.1001 27.5981 14.1001C26.9308 14.1001 26.2635 13.8315 25.5962 13.2944C25.0428 12.855 24.7661 12.1632 24.7661 11.2192C24.7661 10.617 24.8963 10.0352 25.1567 9.47363C25.4172 8.91211 25.82 8.45231 26.3652 8.09424C26.9186 7.72803 27.5859 7.54492 28.3672 7.54492C27.7161 7.90299 27.2401 8.32617 26.939 8.81445C26.646 9.2946 26.4995 9.78288 26.4995 10.2793C26.4995 10.5234 26.5402 10.7757 26.6216 11.0361C26.7111 11.2965 26.821 11.4919 26.9512 11.6221C27.1953 11.8743 27.4842 12.0005 27.8179 12.0005C28.3468 12.0005 28.8595 11.7035 29.356 11.1094C29.8524 10.5153 30.182 9.76253 30.3447 8.85107ZM43.6992 16.6025L42.7959 16.1997L44.1997 13.0015L51.0967 15.6016L49.4976 29.1025L43.2964 28.6021C43.5161 27.9347 43.8254 26.9785 44.2241 25.7334C44.6229 24.4964 44.8792 23.6867 44.9932 23.3042C44.4642 23.5646 43.3981 23.6948 41.7949 23.6948C40.2568 23.6948 38.9019 23.4059 37.73 22.8281C36.5662 22.2422 35.61 21.2453 34.8613 19.8374C34.1126 18.4214 33.6569 16.509 33.4941 14.1001C33.4779 13.8641 33.4697 13.506 33.4697 13.0259C33.4697 11.8215 33.6121 10.6659 33.897 9.55908C34.1737 8.45231 34.6294 7.4554 35.2642 6.56836C35.9071 5.67318 36.79 4.94482 37.9131 4.3833C39.0361 3.82178 40.3952 3.52881 41.9902 3.50439C43.0482 3.50439 44.0898 3.63053 45.1152 3.88281C46.1406 4.12695 47.0806 4.47282 47.9351 4.92041C48.7896 5.35986 49.522 5.90104 50.1323 6.54395C50.7508 7.17871 51.1536 7.8623 51.3408 8.59473L45.8721 12.1714C45.5059 11.2599 44.2811 10.8042 42.1978 10.8042C41.7257 10.8042 41.2415 11.1419 40.7451 11.8174C40.2487 12.4928 40.0005 13.2537 40.0005 14.1001C40.0412 14.743 40.2324 15.3615 40.5742 15.9556C40.916 16.5415 41.5223 16.8548 42.3931 16.8955C42.4663 16.8955 42.5924 16.8752 42.7715 16.8345C42.9587 16.7856 43.1214 16.745 43.2598 16.7124C43.4062 16.6717 43.5527 16.6351 43.6992 16.6025ZM45.2983 16.2974C44.8996 16.745 44.4398 17.0827 43.9189 17.3105C43.3981 17.5384 42.9587 17.6686 42.6006 17.7012C42.0065 17.7012 41.4368 17.514 40.8916 17.1396C40.3464 16.7653 39.911 16.2974 39.5854 15.7358C39.2599 15.1743 39.0972 14.6291 39.0972 14.1001C39.0972 13.4735 39.2355 12.8306 39.5122 12.1714C39.7889 11.5041 40.1836 10.9425 40.6963 10.4868C41.2171 10.0311 41.8153 9.80322 42.4907 9.80322C43.1336 9.83577 43.8864 9.96598 44.749 10.1938C45.6198 10.4217 46.161 10.6903 46.3726 10.9995L49.9248 8.27734C49.6562 7.59375 49.1191 6.98747 48.3135 6.4585C47.516 5.92139 46.6126 5.50635 45.6035 5.21338C44.5944 4.92041 43.6341 4.77393 42.7227 4.77393C42.4378 4.77393 42.2303 4.78206 42.1001 4.79834C40.505 4.94482 39.207 5.25 38.2061 5.71387C37.2051 6.1696 36.436 6.77995 35.8989 7.54492C35.37 8.30176 35.0037 9.20101 34.8003 10.2427C34.5968 11.2843 34.4951 12.5376 34.4951 14.0024C34.4951 15.6463 34.8125 17.1519 35.4473 18.519C36.082 19.8862 36.9609 20.9604 38.084 21.7417C39.207 22.5148 40.4766 22.9014 41.8926 22.9014H42.9912C44.1224 22.9014 45.0583 22.702 45.7988 22.3032L44.2974 27.894L48.8994 28.2969L50.4985 16.0044L44.4927 13.6973C44.3625 14.0228 44.1956 14.446 43.9922 14.9668C43.7969 15.4876 43.6992 15.7969 43.6992 15.8945L45.2983 16.2974ZM56.7119 19.3003L57.8105 7.10547L62.8154 6.10449L62.6079 2.00293L49.1069 4.00488L48.7041 8.39941L54.1118 7.70361L53.6113 19.4956L50.0103 19.8008L49.6074 23.1943L63.1084 23.0967C63.141 23.0967 63.1572 22.8159 63.1572 22.2544C63.1572 21.4569 63.141 20.7122 63.1084 20.0205C63.0758 19.3369 63.0433 18.9951 63.0107 18.9951C62.8561 18.9951 62.4533 19.0114 61.8022 19.0439C61.1512 19.0765 60.3984 19.1172 59.5439 19.166C58.6895 19.2067 58.071 19.2352 57.6885 19.2515C57.2979 19.2677 56.9723 19.284 56.7119 19.3003ZM57.5054 18.397L63.7065 18.4946L63.6089 23.8047H48.9116L49.5098 19.105L52.9155 18.9951L53.4038 8.39941L48.106 9.30273L48.4111 3.50439L63.2061 1.29492L63.5112 6.60498L58.4087 7.60596L57.5054 18.397ZM77.8545 2.79639L71.8608 2.40576L72.6543 13.0015L67.8569 1.90527L61.7534 1.19727L61.8511 2.89404L64.0605 3.19922L64.5488 26.9053L68.8579 26.7954L69.2607 13.502L74.4609 28.7974L78.0498 28.6021L77.8545 2.79639ZM68.4551 1.00195L71.6533 9.09521L70.9575 1.69775L78.5503 2.00293L78.7578 29.3955L74.2534 29.7007L69.6514 16.7002L69.749 27.4058L63.9507 27.5034L63.2549 4.10254L61.1553 3.60205L61.0576 0.501465L68.4551 1.00195Z" fill="#444444"/>
</svg>
