<svg width="396" height="96" viewBox="0 0 396 96" fill="none" xmlns="http://www.w3.org/2000/svg">
<path d="M48.9372 25.7459L34.2923 35.3239C33.3116 32.8831 30.0317 31.6627 24.4527 31.6627C23.1888 31.6627 21.8921 32.5671 20.5627 34.3759C19.2333 36.1847 18.5686 38.2224 18.5686 40.4888C18.6776 42.2105 19.1897 43.8667 20.105 45.4576C21.0203 47.0267 22.6439 47.8658 24.9758 47.9747C26.7192 47.9747 28.5498 47.5062 30.4676 46.5691C32.3854 45.632 34.0417 43.7578 35.4364 40.9465C35.5236 41.1208 36.428 41.9381 38.1496 43.3982C39.8713 44.8583 41.6256 46.3185 43.4126 47.7786C45.2215 49.2387 46.5508 50.3175 47.4008 51.0148C45.7445 54.9812 43.5543 58.0867 40.8302 60.3313C38.106 62.576 35.2512 64.1124 32.2655 64.9406C29.2799 65.7687 26.316 66.1828 23.374 66.1828C19.2551 66.1828 15.6266 65.4091 12.4884 63.8618C9.372 62.2927 6.81132 59.6231 4.80637 55.8529C2.80141 52.0609 1.58101 46.9396 1.14515 40.4888C1.10156 39.8568 1.07977 38.8979 1.07977 37.6122C1.07977 34.3868 1.46114 31.2922 2.2239 28.3283C2.96486 25.3645 4.18527 22.6949 5.88512 20.3194C7.60677 17.9222 9.97131 15.9717 12.9787 14.468C15.9862 12.9643 19.6256 12.1797 23.897 12.1144C26.7301 12.1144 29.5196 12.4522 32.2655 13.1277C35.0114 13.7815 37.5285 14.7077 39.8168 15.9063C42.1051 17.0832 44.0664 18.5324 45.7009 20.254C47.3572 21.9539 48.4359 23.7845 48.9372 25.7459ZM87.2937 35.1278L75.7543 42.6463C75.1877 41.1862 74.4249 39.944 73.466 38.9197C72.5289 37.8737 71.5592 37.3506 70.5567 37.3506C69.1183 37.3506 67.9088 38.4839 66.9281 40.7503C65.991 42.9296 65.5225 46.7434 65.5225 52.1917C65.5225 56.0054 65.7186 60.4948 66.1109 65.6597L50.0604 67.523C49.1233 60.789 48.6547 54.785 48.6547 49.5111C48.6547 48.6394 48.6983 47.4408 48.7855 45.9153L48.1971 26.8246L61.044 25.2228L62.9073 27.3804C64.4328 26.8573 65.8385 26.4106 67.1243 26.0401C68.4319 25.6696 69.6523 25.3754 70.7855 25.1575C71.9187 24.9395 73.0193 24.8306 74.0871 24.8306C76.2446 24.8306 78.1406 25.3209 79.7751 26.3016C81.8454 27.4566 83.4799 28.6552 84.6785 29.8974C85.8989 31.1396 86.7707 32.8831 87.2937 35.1278ZM87.5343 35.1278L100.643 28.9821L113.784 53.3358L121.826 30.8454L136.274 36.468L111.921 95.3745L99.041 90.5691L106.56 70.2036L87.5343 35.1278ZM152.631 68.2749L154.233 94.5899L139.522 95.3745L137.299 52.9435V52.6166C137.212 51.527 137.169 50.7206 137.169 50.1976L136.58 38.6255L131.742 39.6716L133.344 31.6627L149.95 24.6998L150.375 30.7147C152.969 29.4725 155.595 28.8514 158.253 28.8514C161.479 28.8514 164.759 29.7667 168.093 31.5973C169.64 32.4254 170.893 33.5478 171.852 34.9643C172.833 36.3591 173.541 37.9391 173.977 39.7043C174.435 41.4477 174.664 43.2674 174.664 45.1634C174.664 46.7325 174.533 48.2471 174.271 49.7073C174.032 51.1674 173.694 52.5077 173.258 53.7281C172.822 54.9485 172.31 55.9836 171.721 56.8336C169.891 59.5795 167.897 61.8024 165.739 63.5022C163.582 65.2021 161.413 66.4225 159.234 67.1634C157.055 67.9044 154.854 68.2749 152.631 68.2749ZM151.094 42.7771C151.094 43.9975 151.367 45.1961 151.912 46.3729C152.478 47.528 153.099 48.3343 153.775 48.792C155.518 49.9034 157.175 50.4591 158.744 50.4591C160.291 50.4591 161.664 49.947 162.863 48.9227C164.061 47.8767 164.977 46.5473 165.609 44.9346C166.241 43.3001 166.557 41.6874 166.557 40.0966C166.557 39.0069 166.426 38.0044 166.164 37.0891C165.794 38.7454 164.987 40.2055 163.745 41.4695C162.525 42.7335 161.326 43.3655 160.149 43.3655C159.561 43.3655 159.038 43.213 158.58 42.9079C157.927 42.3848 157.6 41.4695 157.6 40.1619C157.6 39.1595 157.927 38.1679 158.58 37.1872C159.256 36.2065 160.313 35.4329 161.751 34.8662C159.986 34.8662 158.351 35.2476 156.848 36.0104C155.344 36.7513 154.069 37.7429 153.023 38.9851C151.999 40.2273 151.356 41.4913 151.094 42.7771ZM182.75 9.69534L197.035 3.25552L196.806 25.2228L207.463 25.4844V38.0698L196.414 38.2006C196.022 41.2952 195.825 44.2045 195.825 46.9287C195.825 49.1951 195.956 51.0693 196.218 52.5513C196.436 53.7717 196.98 54.7088 197.852 55.3625C198.724 56.0163 199.737 56.3432 200.892 56.3432C202.178 56.3432 203.3 55.9619 204.259 55.1991C205.24 54.4363 205.73 53.3903 205.73 52.0609C205.73 51.8648 205.687 51.4834 205.6 50.9168L216.289 43.9539C216.747 44.8038 217.313 46.2313 217.989 48.2362C218.686 50.2412 219.035 52.4314 219.035 54.8068C219.035 57.6617 218.283 60.2442 216.779 62.5542C215.276 64.8643 212.704 66.6186 209.065 67.8172C206.515 68.6454 204.107 69.0594 201.84 69.0594C198.419 69.0594 195.4 68.3076 192.785 66.8039C190.192 65.3001 188.034 63.4913 186.313 61.3774C185.506 60.3967 184.874 58.7731 184.417 56.5067C183.981 54.2402 183.698 51.8757 183.567 49.4131C183.436 46.9505 183.371 44.4878 183.371 42.0252V38.3313L173.727 38.6255L171.308 23.8826L183.501 24.6998L182.75 9.69534ZM252.782 31.5973C254.33 32.4254 255.583 33.5478 256.542 34.9643C257.522 36.3591 258.23 37.9391 258.666 39.7043C259.124 41.4477 259.353 43.2674 259.353 45.1634C259.353 46.7325 259.222 48.2471 258.961 49.7073C258.721 51.1674 258.383 52.5077 257.947 53.7281C257.511 54.9485 256.999 55.9836 256.411 56.8336C255.038 58.8821 253.567 60.6473 251.998 62.1293C250.429 63.6112 248.827 64.8098 247.192 65.7251C245.558 66.6186 243.934 67.2724 242.322 67.6865C240.731 68.1223 239.151 68.3403 237.582 68.3403C235.729 68.3403 233.964 68.0461 232.286 67.4577C230.63 66.891 229.213 66.1392 228.036 65.2021C226.097 63.5894 224.582 61.421 223.492 58.6969C222.403 55.951 221.858 53.0525 221.858 50.0015C221.858 44.7494 223.373 40.5106 226.402 37.2853C228.995 34.5176 231.676 32.4363 234.443 31.0416C237.211 29.625 240.044 28.9168 242.943 28.9168C244.643 28.9168 246.277 29.1347 247.846 29.5705C249.415 29.9846 251.061 30.6602 252.782 31.5973ZM250.854 37.0891C250.483 38.7454 249.677 40.2055 248.435 41.4695C247.214 42.7335 246.015 43.3655 244.839 43.3655C244.25 43.3655 243.727 43.213 243.27 42.9079C242.616 42.3848 242.289 41.4695 242.289 40.1619C242.289 39.1595 242.616 38.1679 243.27 37.1872C243.945 36.2065 245.002 35.4329 246.44 34.8662C245.002 34.8662 243.607 35.1387 242.256 35.6835C240.927 36.2283 239.783 36.9366 238.824 37.8083C237.865 38.6582 237.091 39.628 236.503 40.7177C235.936 41.7855 235.653 42.8643 235.653 43.9539C235.653 45.9807 236.59 47.5933 238.464 48.792C240.208 49.9034 241.864 50.4591 243.433 50.4591C244.98 50.4591 246.353 49.947 247.552 48.9227C248.751 47.8767 249.666 46.5473 250.298 44.9346C250.93 43.3001 251.246 41.6874 251.246 40.0966C251.246 39.0069 251.115 38.0044 250.854 37.0891ZM266.099 18.26L282.182 17.1812L286.464 24.1441L290.223 14.5007L300.651 14.2392L312.975 71.5438L293.95 69.6805L290.485 50.1322L286.726 57.3566L281.659 48.2689L280.024 64.8425L261.555 66.1828L266.099 18.26ZM342.506 31.5973C344.053 32.4254 345.306 33.5478 346.265 34.9643C347.246 36.3591 347.954 37.9391 348.39 39.7043C348.847 41.4477 349.076 43.2674 349.076 45.1634C349.076 46.7325 348.946 48.2471 348.684 49.7073C348.444 51.1674 348.106 52.5077 347.671 53.7281C347.235 54.9485 346.723 55.9836 346.134 56.8336C344.761 58.8821 343.29 60.6473 341.721 62.1293C340.152 63.6112 338.55 64.8098 336.916 65.7251C335.281 66.6186 333.658 67.2724 332.045 67.6865C330.454 68.1223 328.874 68.3403 327.305 68.3403C325.453 68.3403 323.687 68.0461 322.009 67.4577C320.353 66.891 318.937 66.1392 317.76 65.2021C315.82 63.5894 314.306 61.421 313.216 58.6969C312.126 55.951 311.581 53.0525 311.581 50.0015C311.581 44.7494 313.096 40.5106 316.125 37.2853C318.719 34.5176 321.399 32.4363 324.167 31.0416C326.935 29.625 329.768 28.9168 332.666 28.9168C334.366 28.9168 336 29.1347 337.57 29.5705C339.139 29.9846 340.784 30.6602 342.506 31.5973ZM340.577 37.0891C340.207 38.7454 339.4 40.2055 338.158 41.4695C336.938 42.7335 335.739 43.3655 334.562 43.3655C333.974 43.3655 333.451 43.213 332.993 42.9079C332.339 42.3848 332.012 41.4695 332.012 40.1619C332.012 39.1595 332.339 38.1679 332.993 37.1872C333.669 36.2065 334.726 35.4329 336.164 34.8662C334.726 34.8662 333.331 35.1387 331.98 35.6835C330.65 36.2283 329.506 36.9366 328.547 37.8083C327.588 38.6582 326.815 39.628 326.226 40.7177C325.66 41.7855 325.376 42.8643 325.376 43.9539C325.376 45.9807 326.313 47.5933 328.188 48.792C329.931 49.9034 331.587 50.4591 333.156 50.4591C334.704 50.4591 336.077 49.947 337.275 48.9227C338.474 47.8767 339.389 46.5473 340.021 44.9346C340.653 43.3001 340.969 41.6874 340.969 40.0966C340.969 39.0069 340.839 38.0044 340.577 37.0891ZM365.204 29.2437C367.623 28.4373 369.704 27.8271 371.448 27.413C373.191 26.9772 374.858 26.7593 376.449 26.7593C378.585 26.7593 380.459 27.2278 382.072 28.1649C384.011 29.2763 386.103 31.1723 388.348 33.8529C390.593 36.5334 391.988 39.0178 392.532 41.3061C393.687 45.948 394.265 50.0015 394.265 53.4666C394.265 55.2972 394.145 57.2258 393.905 59.2526C393.666 61.2575 393.295 63.84 392.794 67L379.13 67.8172C379.173 66.7276 379.195 65.1585 379.195 63.11C379.195 54.5671 378.018 47.2991 375.665 41.3061C374.749 39.0614 373.856 37.9391 372.984 37.9391C371.851 37.9391 370.598 39.5081 369.225 42.6463C368.898 43.4091 368.625 44.2808 368.408 45.2615C368.211 46.2422 368.059 47.3427 367.95 48.5631C367.863 49.7835 367.819 51.2219 367.819 52.8781C367.819 56.2343 368.015 60.4948 368.408 65.6597L352.357 67.523C352.095 65.6052 351.856 63.6984 351.638 61.8024C351.42 59.9064 351.246 58.152 351.115 56.5394C351.006 54.9049 350.951 53.1506 350.951 51.2764C350.951 50.47 350.995 49.3041 351.082 47.7786L350.494 28.7206L363.341 27.0861L365.204 29.2437Z" fill="#FFCB05"/>
<path d="M48.9372 25.7459L49.9841 27.3467L51.1292 26.5978L50.7904 25.2723L48.9372 25.7459ZM34.2923 35.3239L32.5174 36.037L33.387 38.2015L35.3392 36.9247L34.2923 35.3239ZM18.5686 40.4888H16.6558V40.5493L16.6597 40.6097L18.5686 40.4888ZM20.105 45.4576L18.447 46.4116L18.4528 46.4214L20.105 45.4576ZM24.9758 47.9747L24.8865 49.8854L24.9311 49.8875H24.9758V47.9747ZM35.4364 40.9465L37.1473 40.0911L35.4297 36.656L33.7229 40.0964L35.4364 40.9465ZM43.4126 47.7786L42.2023 49.2598L42.2112 49.267L43.4126 47.7786ZM47.4008 51.0148L49.1658 51.7519L49.7142 50.4388L48.6141 49.5361L47.4008 51.0148ZM12.4884 63.8618L11.6282 65.5703L11.6353 65.5739L11.6425 65.5774L12.4884 63.8618ZM4.80637 55.8529L3.11538 56.747L3.11752 56.751L4.80637 55.8529ZM1.14515 40.4888L3.0536 40.3599L3.05342 40.3572L1.14515 40.4888ZM2.2239 28.3283L4.07638 28.8051L4.07959 28.7923L2.2239 28.3283ZM5.88512 20.3194L4.33148 19.2036L4.32958 19.2063L5.88512 20.3194ZM23.897 12.1144V10.2016H23.8824L23.8677 10.2018L23.897 12.1144ZM32.2655 13.1277L31.8085 14.9852L31.8155 14.9869L31.8225 14.9885L32.2655 13.1277ZM39.8168 15.9063L38.9292 17.6008L38.9356 17.6041L38.942 17.6074L39.8168 15.9063ZM45.7009 20.254L44.3137 21.571L44.3222 21.58L44.3309 21.5889L45.7009 20.254ZM47.8902 24.145L33.2453 33.7231L35.3392 36.9247L49.9841 27.3467L47.8902 24.145ZM36.0672 34.6108C35.3156 32.7402 33.7336 31.5182 31.7639 30.7853C29.822 30.0627 27.351 29.7499 24.4527 29.7499V33.5755C27.1335 33.5755 29.0919 33.8729 30.4298 34.3707C31.74 34.8582 32.2883 35.4668 32.5174 36.037L36.0672 34.6108ZM24.4527 29.7499C22.2355 29.7499 20.4411 31.3114 19.0214 33.2431L22.104 35.5087C23.343 33.8228 24.142 33.5755 24.4527 33.5755V29.7499ZM19.0214 33.2431C17.4482 35.3837 16.6558 37.8191 16.6558 40.4888H20.4814C20.4814 38.6256 21.0185 36.9857 22.104 35.5087L19.0214 33.2431ZM16.6597 40.6097C16.7884 42.6432 17.3948 44.5826 18.4471 46.4115L21.763 44.5037C20.9847 43.1509 20.5668 41.7777 20.4776 40.368L16.6597 40.6097ZM18.4528 46.4214C19.7877 48.7098 22.1153 49.7559 24.8865 49.8854L25.0651 46.064C23.1726 45.9756 22.253 45.3436 21.7573 44.4938L18.4528 46.4214ZM24.9758 49.8875C27.0682 49.8875 29.1857 49.3244 31.3074 48.2877L29.6278 44.8505C27.914 45.6879 26.3702 46.0619 24.9758 46.0619V49.8875ZM31.3074 48.2877C33.7457 47.0962 35.6524 44.8151 37.1499 41.7966L33.7229 40.0964C32.4309 42.7005 31.025 44.1678 29.6278 44.8505L31.3074 48.2877ZM33.7255 41.8019C33.8542 42.0592 34.0217 42.2485 34.0642 42.2974C34.1413 42.3861 34.2248 42.4727 34.3025 42.5503C34.4599 42.7077 34.6623 42.8967 34.8977 43.1094C35.3723 43.5383 36.0468 44.1229 36.9124 44.857L39.3868 41.9394C38.5308 41.2134 37.8923 40.6593 37.4625 40.271C37.2457 40.075 37.0981 39.9357 37.0076 39.8452C36.9613 39.7989 36.9463 39.7817 36.9506 39.7866C36.9529 39.7892 36.9712 39.8103 36.9975 39.8456C37.0165 39.8712 37.0814 39.9594 37.1473 40.0911L33.7255 41.8019ZM36.9124 44.857C38.6432 46.3249 40.4065 47.7925 42.2024 49.2598L44.6229 46.2974C42.8447 44.8445 41.0994 43.3918 39.3868 41.9394L36.9124 44.857ZM42.2112 49.267C44.0194 50.7266 45.3438 51.8013 46.1874 52.4936L48.6141 49.5361C47.7579 48.8336 46.4235 47.7508 44.6141 46.2902L42.2112 49.267ZM45.6357 50.2778C44.0736 54.0186 42.0506 56.8472 39.6138 58.8551L42.0466 61.8076C45.0579 59.3262 47.4154 55.9437 49.1658 51.7519L45.6357 50.2778ZM39.6138 58.8551C37.0677 60.9531 34.4482 62.3501 31.7543 63.0974L32.7768 66.7838C36.0542 65.8747 39.1444 64.1989 42.0466 61.8076L39.6138 58.8551ZM31.7543 63.0974C28.9263 63.8818 26.1343 64.27 23.374 64.27V68.0956C26.4978 68.0956 29.6335 67.6556 32.7768 66.7838L31.7543 63.0974ZM23.374 64.27C19.4968 64.27 16.1666 63.5427 13.3343 62.1462L11.6425 65.5774C15.0866 67.2755 19.0135 68.0956 23.374 68.0956V64.27ZM13.3486 62.1533C10.6582 60.7987 8.35662 58.455 6.49521 54.9548L3.11752 56.751C5.26603 60.7911 8.08582 63.7867 11.6282 65.5703L13.3486 62.1533ZM6.49735 54.9588C4.66477 51.4928 3.4797 46.6662 3.0536 40.3599L-0.763304 40.6178C-0.317688 47.2129 0.938052 52.629 3.11538 56.747L6.49735 54.9588ZM3.05342 40.3572C3.01456 39.7938 2.99257 38.889 2.99257 37.6122H-0.833034C-0.833034 38.9069 -0.811435 39.9199 -0.763122 40.6204L3.05342 40.3572ZM2.99257 37.6122C2.99257 34.539 3.35577 31.605 4.07634 28.8051L0.371459 27.8516C-0.433477 30.9794 -0.833034 34.2346 -0.833034 37.6122H2.99257ZM4.07959 28.7923C4.76493 26.0509 5.88717 23.6035 7.44067 21.4326L4.32958 19.2063C2.48337 21.7862 1.16479 24.6781 0.368209 27.8644L4.07959 28.7923ZM7.43876 21.4352C8.95555 19.3232 11.0653 17.5633 13.8342 16.1789L12.1233 12.7571C8.87732 14.3801 6.25798 16.5212 4.33148 19.2036L7.43876 21.4352ZM13.8342 16.1789C16.5251 14.8334 19.8667 14.0891 23.9263 14.0269L23.8677 10.2018C19.3845 10.2704 15.4472 11.0952 12.1233 12.7571L13.8342 16.1789ZM23.897 14.0272C26.5764 14.0272 29.2125 14.3464 31.8085 14.9852L32.7225 11.2703C29.8268 10.5579 26.8838 10.2016 23.897 10.2016V14.0272ZM31.8225 14.9885C34.4281 15.6089 36.794 16.4823 38.9292 17.6008L40.7044 14.2119C38.2631 12.9332 35.5948 11.9542 32.7086 11.267L31.8225 14.9885ZM38.942 17.6074C41.0551 18.6941 42.8391 20.0178 44.3137 21.571L47.0881 18.9371C45.2937 17.047 43.155 15.4722 40.6916 14.2053L38.942 17.6074ZM44.3309 21.5889C45.7941 23.0906 46.6789 24.6346 47.0839 26.2195L50.7904 25.2723C50.193 22.9344 48.9203 20.8172 47.0709 18.9192L44.3309 21.5889ZM87.2937 35.1278L88.3379 36.7304L89.4607 35.9988L89.1566 34.6937L87.2937 35.1278ZM75.7543 42.6463L73.9711 43.3383L74.8237 45.5356L76.7985 44.249L75.7543 42.6463ZM73.466 38.9197L72.0413 40.1961L72.0553 40.2117L72.0697 40.227L73.466 38.9197ZM66.9281 40.7503L65.1726 39.9907L65.1709 39.9947L66.9281 40.7503ZM66.1109 65.6597L66.3315 67.5598L68.1574 67.3478L68.0182 65.5149L66.1109 65.6597ZM50.0604 67.523L48.1658 67.7867L48.4236 69.6387L50.2809 69.4231L50.0604 67.523ZM48.7855 45.9153L50.6952 46.0244L50.7 45.9404L50.6974 45.8564L48.7855 45.9153ZM48.1971 26.8246L47.9604 24.9265L46.2315 25.1421L46.2852 26.8836L48.1971 26.8246ZM61.044 25.2228L62.4917 23.9726L61.8228 23.1981L60.8074 23.3247L61.044 25.2228ZM62.9073 27.3804L61.4597 28.6306L62.3047 29.6091L63.5277 29.1898L62.9073 27.3804ZM67.1243 26.0401L66.6028 24.1997L66.5947 24.2021L67.1243 26.0401ZM79.7751 26.3016L78.791 27.9418L78.8168 27.9573L78.8432 27.972L79.7751 26.3016ZM84.6785 29.8974L83.302 31.2256L83.308 31.2318L83.3141 31.238L84.6785 29.8974ZM86.2495 33.5251L74.7101 41.0437L76.7985 44.249L88.3379 36.7304L86.2495 33.5251ZM77.5375 41.9543C76.8927 40.2927 76.0068 38.8348 74.8624 37.6125L72.0697 40.227C72.8431 41.0532 73.4826 42.0797 73.9711 43.3383L77.5375 41.9543ZM74.8908 37.6434C73.7411 36.36 72.2934 35.4378 70.5567 35.4378V39.2634C70.8249 39.2634 71.3168 39.3873 72.0413 40.1961L74.8908 37.6434ZM70.5567 35.4378C67.9027 35.4378 66.2221 37.5652 65.1726 39.9908L68.6837 41.5099C69.5955 39.4025 70.334 39.2634 70.5567 39.2634V35.4378ZM65.1709 39.9947C64.0645 42.5679 63.6097 46.735 63.6097 52.1917H67.4353C67.4353 46.7518 67.9176 43.2914 68.6854 41.506L65.1709 39.9947ZM63.6097 52.1917C63.6097 56.0674 63.8089 60.6072 64.2036 65.8046L68.0182 65.5149C67.6284 60.3824 67.4353 55.9435 67.4353 52.1917H63.6097ZM65.8903 63.7597L49.8398 65.623L50.2809 69.4231L66.3315 67.5598L65.8903 63.7597ZM51.9549 67.2594C51.0267 60.5892 50.5675 54.6759 50.5675 49.5111H46.7419C46.7419 54.8942 47.2198 60.9888 48.1658 67.7867L51.9549 67.2594ZM50.5675 49.5111C50.5675 48.693 50.6088 47.5362 50.6952 46.0244L46.8758 45.8062C46.7878 47.3454 46.7419 48.5858 46.7419 49.5111H50.5675ZM50.6974 45.8564L50.109 26.7657L46.2852 26.8836L46.8736 45.9742L50.6974 45.8564ZM48.4337 28.7227L61.2807 27.121L60.8074 23.3247L47.9604 24.9265L48.4337 28.7227ZM59.5964 26.4731L61.4597 28.6306L64.355 26.1301L62.4917 23.9726L59.5964 26.4731ZM63.5277 29.1898C65.029 28.675 66.404 28.2382 67.6539 27.8781L66.5947 24.2021C65.273 24.5829 63.8366 25.0396 62.287 25.5709L63.5277 29.1898ZM67.6457 27.8804C68.9094 27.5224 70.0759 27.2418 71.1467 27.0359L70.4243 23.2791C69.2287 23.509 67.9543 23.8168 66.6028 24.1997L67.6457 27.8804ZM71.1467 27.0359C72.1704 26.839 73.1498 26.7434 74.0871 26.7434V22.9178C72.8888 22.9178 71.6671 23.0401 70.4243 23.2791L71.1467 27.0359ZM74.0871 26.7434C75.9447 26.7434 77.4915 27.1621 78.791 27.9418L80.7592 24.6614C78.7898 23.4797 76.5446 22.9178 74.0871 22.9178V26.7434ZM78.8432 27.972C80.8059 29.067 82.2725 30.1586 83.302 31.2256L86.055 28.5693C84.6874 27.1519 82.8849 25.8462 80.707 24.6312L78.8432 27.972ZM83.3141 31.238C84.2207 32.1608 84.9624 33.5515 85.4308 35.5618L89.1566 34.6937C88.5789 32.2147 87.5772 30.1185 86.043 28.5569L83.3141 31.238ZM87.5343 35.1278L86.7223 33.3958L84.8858 34.2568L85.8529 36.0398L87.5343 35.1278ZM100.643 28.9821L102.326 28.0738L101.468 26.4828L99.8308 27.2502L100.643 28.9821ZM113.784 53.3358L112.101 54.2441L114.139 58.0227L115.585 53.9798L113.784 53.3358ZM121.826 30.8454L122.519 29.0628L120.687 28.3497L120.024 30.2014L121.826 30.8454ZM136.274 36.468L138.042 37.1988L138.788 35.3938L136.968 34.6854L136.274 36.468ZM111.921 95.3745L111.252 97.1666L112.983 97.8123L113.688 96.1053L111.921 95.3745ZM99.041 90.5691L97.2466 89.9066L96.5864 91.6949L98.3723 92.3612L99.041 90.5691ZM106.56 70.2036L108.354 70.866L108.654 70.0532L108.241 69.2916L106.56 70.2036ZM88.3463 36.8597L101.455 30.714L99.8308 27.2502L86.7223 33.3958L88.3463 36.8597ZM98.9594 29.8905L112.101 54.2441L115.467 52.4275L102.326 28.0738L98.9594 29.8905ZM115.585 53.9798L123.627 31.4894L120.024 30.2014L111.983 52.6918L115.585 53.9798ZM121.132 32.628L135.581 38.2506L136.968 34.6854L122.519 29.0628L121.132 32.628ZM134.507 35.7372L110.153 94.6437L113.688 96.1053L138.042 37.1988L134.507 35.7372ZM112.589 93.5823L99.7096 88.777L98.3723 92.3612L111.252 97.1666L112.589 93.5823ZM100.835 91.2316L108.354 70.866L104.765 69.5411L97.2466 89.9066L100.835 91.2316ZM108.241 69.2916L89.2157 34.2158L85.8529 36.0398L104.878 71.1156L108.241 69.2916ZM152.631 68.2749V66.3621H150.598L150.722 68.3911L152.631 68.2749ZM154.233 94.5899L154.334 96.5L156.259 96.3974L156.142 94.4737L154.233 94.5899ZM139.522 95.3745L137.612 95.4745L137.712 97.3865L139.624 97.2846L139.522 95.3745ZM137.299 52.9435H135.387V52.9936L135.389 53.0436L137.299 52.9435ZM137.299 52.6166H139.212V52.5402L139.206 52.4641L137.299 52.6166ZM137.169 50.1976H139.081V50.149L139.079 50.1005L137.169 50.1976ZM136.58 38.6255L138.491 38.5284L138.376 36.2802L136.176 36.7559L136.58 38.6255ZM131.742 39.6716L129.867 39.2965L129.294 42.1579L132.146 41.5412L131.742 39.6716ZM133.344 31.6627L132.604 29.8987L131.668 30.2915L131.468 31.2875L133.344 31.6627ZM149.95 24.6998L151.858 24.565L151.67 21.9045L149.211 22.9358L149.95 24.6998ZM150.375 30.7147L148.467 30.8495L148.665 33.6546L151.202 32.4398L150.375 30.7147ZM168.093 31.5973L167.172 33.274L167.181 33.2789L167.19 33.2837L168.093 31.5973ZM171.852 34.9643L170.268 36.0366L170.278 36.0506L170.287 36.0645L171.852 34.9643ZM173.977 39.7043L172.12 40.1628L172.123 40.1764L172.127 40.1899L173.977 39.7043ZM174.271 49.7073L172.388 49.37L172.386 49.3837L172.384 49.3974L174.271 49.7073ZM171.721 56.8336L170.149 55.7448L170.139 55.7586L170.13 55.7725L171.721 56.8336ZM151.094 42.7771L149.22 42.3959L149.182 42.5845V42.7771H151.094ZM151.912 46.3729L150.176 47.1766L150.185 47.1961L150.194 47.2154L151.912 46.3729ZM153.775 48.792L152.702 50.3756L152.724 50.3906L152.747 50.4049L153.775 48.792ZM162.863 48.9227L164.105 50.3769L164.113 50.3704L164.12 50.3639L162.863 48.9227ZM165.609 44.9346L167.389 45.6325L167.393 45.6244L165.609 44.9346ZM166.164 37.0891L168.003 36.5636L164.298 36.6716L166.164 37.0891ZM163.745 41.4695L162.381 40.1288L162.375 40.1348L162.369 40.1409L163.745 41.4695ZM158.58 42.9079L157.385 44.4015L157.45 44.4534L157.519 44.4994L158.58 42.9079ZM158.58 37.1872L157.005 36.1021L156.997 36.114L156.989 36.1262L158.58 37.1872ZM161.751 34.8662L162.452 36.6459L161.751 32.9534V34.8662ZM156.848 36.0104L157.693 37.7262L157.703 37.7213L157.713 37.7163L156.848 36.0104ZM153.023 38.9851L151.56 37.753L151.554 37.7606L151.547 37.7682L153.023 38.9851ZM150.722 68.3911L152.323 94.7061L156.142 94.4737L154.54 68.1587L150.722 68.3911ZM154.131 92.6798L139.42 93.4644L139.624 97.2846L154.334 96.5L154.131 92.6798ZM141.433 95.2744L139.21 52.8435L135.389 53.0436L137.612 95.4745L141.433 95.2744ZM139.212 52.9435V52.6166H135.387V52.9435H139.212ZM139.206 52.4641C139.12 51.383 139.081 50.6401 139.081 50.1976H135.256C135.256 50.8012 135.305 51.6709 135.393 52.7692L139.206 52.4641ZM139.079 50.1005L138.491 38.5284L134.67 38.7227L135.258 50.2947L139.079 50.1005ZM136.176 36.7559L131.338 37.802L132.146 41.5412L136.985 40.4951L136.176 36.7559ZM133.618 40.0467L135.22 32.0378L131.468 31.2875L129.867 39.2965L133.618 40.0467ZM134.084 33.4267L150.69 26.4638L149.211 22.9358L132.604 29.8987L134.084 33.4267ZM148.042 24.8346L148.467 30.8495L152.283 30.5799L151.858 24.565L148.042 24.8346ZM151.202 32.4398C153.558 31.3109 155.903 30.7642 158.253 30.7642V26.9386C155.286 26.9386 152.379 27.6341 149.549 28.9896L151.202 32.4398ZM158.253 30.7642C161.104 30.7642 164.069 31.5705 167.172 33.274L169.013 29.9206C165.448 27.9629 161.854 26.9386 158.253 26.9386V30.7642ZM167.19 33.2837C168.471 33.9694 169.488 34.8838 170.268 36.0366L173.436 33.8921C172.299 32.2117 170.809 30.8815 168.996 29.9108L167.19 33.2837ZM170.287 36.0645C171.123 37.2527 171.737 38.6123 172.12 40.1628L175.834 39.2458C175.345 37.2658 174.543 35.4654 173.417 33.8641L170.287 36.0645ZM172.127 40.1899C172.541 41.7668 172.751 43.4228 172.751 45.1634H176.576C176.576 43.112 176.329 41.1286 175.827 39.2186L172.127 40.1899ZM172.751 45.1634C172.751 46.6259 172.629 48.0274 172.388 49.37L176.154 50.0445C176.437 48.4669 176.576 46.8391 176.576 45.1634H172.751ZM172.384 49.3974C172.16 50.7596 171.849 51.9866 171.456 53.0847L175.059 54.3714C175.539 53.0287 175.903 51.5752 176.159 50.0172L172.384 49.3974ZM171.456 53.0847C171.063 54.1853 170.621 55.0623 170.149 55.7448L173.294 57.9224C173.999 56.905 174.581 55.7117 175.059 54.3714L171.456 53.0847ZM170.13 55.7725C168.389 58.3834 166.527 60.4468 164.556 61.9997L166.923 65.0047C169.267 63.1579 171.392 60.7755 173.313 57.8946L170.13 55.7725ZM164.556 61.9997C162.536 63.5905 160.557 64.6934 158.618 65.3525L159.85 68.9744C162.27 68.1516 164.627 66.8136 166.923 65.0047L164.556 61.9997ZM158.618 65.3525C156.63 66.0284 154.637 66.3621 152.631 66.3621V70.1877C155.071 70.1877 157.479 69.7804 159.85 68.9744L158.618 65.3525ZM149.182 42.7771C149.182 44.2922 149.522 45.764 150.176 47.1766L153.647 45.5693C153.212 44.6283 153.007 43.7028 153.007 42.7771H149.182ZM150.194 47.2154C150.831 48.5131 151.636 49.6532 152.702 50.3756L154.848 47.2083C154.563 47.0154 154.126 46.5429 153.629 45.5305L150.194 47.2154ZM152.747 50.4049C154.702 51.6512 156.711 52.3719 158.744 52.3719V48.5463C157.638 48.5463 156.335 48.1556 154.803 47.179L152.747 50.4049ZM158.744 52.3719C160.756 52.3719 162.567 51.691 164.105 50.3769L161.62 47.4685C160.761 48.203 159.826 48.5463 158.744 48.5463V52.3719ZM164.12 50.3639C165.571 49.0981 166.655 47.5054 167.389 45.6325L163.828 44.2367C163.298 45.5891 162.552 46.6552 161.605 47.4816L164.12 50.3639ZM167.393 45.6244C168.101 43.7923 168.469 41.9462 168.469 40.0966H164.644C164.644 41.4287 164.38 42.808 163.824 44.2448L167.393 45.6244ZM168.469 40.0966C168.469 38.8543 168.32 37.6724 168.003 36.5636L164.325 37.6146C164.531 38.3364 164.644 39.1595 164.644 40.0966H168.469ZM164.298 36.6716C164.009 37.9634 163.384 39.1077 162.381 40.1288L165.109 42.8103C166.59 41.3033 167.579 39.5274 168.031 37.5067L164.298 36.6716ZM162.369 40.1409C161.332 41.2148 160.598 41.4527 160.149 41.4527V45.2783C162.054 45.2783 163.717 44.2522 165.121 42.7981L162.369 40.1409ZM160.149 41.4527C159.911 41.4527 159.763 41.3971 159.641 41.3163L157.519 44.4994C158.313 45.0288 159.211 45.2783 160.149 45.2783V41.4527ZM159.775 41.4142C159.768 41.4081 159.71 41.3639 159.646 41.1858C159.577 40.9922 159.512 40.6673 159.512 40.1619H155.687C155.687 41.7216 156.072 43.3505 157.385 44.4015L159.775 41.4142ZM159.512 40.1619C159.512 39.5996 159.69 38.9711 160.172 38.2482L156.989 36.1262C156.163 37.3647 155.687 38.7193 155.687 40.1619H159.512ZM160.156 38.2723C160.559 37.6862 161.263 37.1143 162.452 36.6459L161.05 33.0866C159.362 33.7514 157.952 34.7269 157.005 36.1021L160.156 38.2723ZM161.751 32.9534C159.7 32.9534 157.767 33.3993 155.982 34.3045L157.713 37.7163C158.936 37.096 160.272 36.779 161.751 36.779V32.9534ZM156.002 34.2946C154.269 35.1485 152.782 36.3021 151.56 37.753L154.486 40.2172C155.356 39.1838 156.419 38.3542 157.693 37.7262L156.002 34.2946ZM151.547 37.7682C150.368 39.1979 149.557 40.7409 149.22 42.3959L152.969 43.1583C153.155 42.2417 153.629 41.2567 154.499 40.202L151.547 37.7682ZM182.75 9.69534L181.963 7.95154L180.774 8.48782L180.839 9.79107L182.75 9.69534ZM197.035 3.25552L198.948 3.27544L198.979 0.281031L196.249 1.51172L197.035 3.25552ZM196.806 25.2228L194.893 25.2029L194.874 27.0888L196.759 27.1351L196.806 25.2228ZM207.463 25.4844H209.376V23.6179L207.51 23.5721L207.463 25.4844ZM207.463 38.0698L207.485 39.9825L209.376 39.9601V38.0698H207.463ZM196.414 38.2006L196.391 36.2879L194.726 36.3076L194.516 37.96L196.414 38.2006ZM196.218 52.5513L194.334 52.8837L194.335 52.8875L196.218 52.5513ZM204.259 55.1991L203.085 53.6892L203.077 53.6956L203.068 53.7021L204.259 55.1991ZM205.6 50.9168L204.556 49.314L203.521 49.9877L203.709 51.2076L205.6 50.9168ZM216.289 43.9539L217.973 43.0471L216.987 41.2162L215.245 42.3512L216.289 43.9539ZM217.989 48.2362L216.176 48.847L216.179 48.8558L216.182 48.8646L217.989 48.2362ZM209.065 67.8172L209.655 69.6365L209.663 69.634L209.065 67.8172ZM192.785 66.8039L191.826 68.4586L191.832 68.4621L192.785 66.8039ZM186.313 61.3774L187.796 60.1695L187.79 60.1626L186.313 61.3774ZM184.417 56.5067L182.538 56.8679L182.54 56.8766L182.542 56.8853L184.417 56.5067ZM183.371 38.3313H185.283V36.3593L183.312 36.4194L183.371 38.3313ZM173.727 38.6255L171.84 38.9352L172.111 40.5885L173.786 40.5374L173.727 38.6255ZM171.308 23.8826L171.436 21.9741L169.03 21.8128L169.421 24.1923L171.308 23.8826ZM183.501 24.6998L183.374 26.6083L185.519 26.7522L185.412 24.6041L183.501 24.6998ZM183.536 11.4391L197.821 4.99932L196.249 1.51172L181.963 7.95154L183.536 11.4391ZM195.122 3.23559L194.893 25.2029L198.719 25.2428L198.948 3.27544L195.122 3.23559ZM196.759 27.1351L207.416 27.3966L207.51 23.5721L196.853 23.3106L196.759 27.1351ZM205.55 25.4844V38.0698H209.376V25.4844H205.55ZM207.44 36.1571L196.391 36.2879L196.436 40.1132L207.485 39.9825L207.44 36.1571ZM194.516 37.96C194.115 41.1232 193.913 44.1136 193.913 46.9287H197.738C197.738 44.2955 197.928 41.4671 198.311 38.4411L194.516 37.96ZM193.913 46.9287C193.913 49.2567 194.046 51.2519 194.334 52.8837L198.101 52.2188C197.866 50.8867 197.738 49.1335 197.738 46.9287H193.913ZM194.335 52.8875C194.625 54.514 195.391 55.908 196.704 56.8928L199 53.8323C198.569 53.5095 198.246 53.0293 198.101 52.215L194.335 52.8875ZM196.704 56.8928C197.928 57.8103 199.35 58.256 200.892 58.256V54.4304C200.125 54.4304 199.52 54.2223 199 53.8323L196.704 56.8928ZM200.892 58.256C202.588 58.256 204.135 57.7421 205.45 56.6961L203.068 53.7021C202.466 54.1817 201.769 54.4304 200.892 54.4304V58.256ZM205.434 56.709C206.917 55.5555 207.643 53.9328 207.643 52.0609H203.817C203.817 52.8478 203.563 53.3172 203.085 53.6892L205.434 56.709ZM207.643 52.0609C207.643 51.6951 207.574 51.1709 207.49 50.6259L203.709 51.2076C203.75 51.4771 203.779 51.6877 203.797 51.845C203.817 52.0179 203.817 52.0749 203.817 52.0609H207.643ZM206.644 52.5195L217.333 45.5567L215.245 42.3512L204.556 49.314L206.644 52.5195ZM214.605 44.8608C214.98 45.5579 215.504 46.8533 216.176 48.847L219.801 47.6255C219.122 45.6093 218.513 44.0498 217.973 43.0471L214.605 44.8608ZM216.182 48.8646C216.801 50.645 217.122 52.6201 217.122 54.8068H220.948C220.948 52.2427 220.571 49.8374 219.795 47.6078L216.182 48.8646ZM217.122 54.8068C217.122 57.3052 216.47 59.5227 215.176 61.5107L218.382 63.5977C220.096 60.9657 220.948 58.0182 220.948 54.8068H217.122ZM215.176 61.5107C213.987 63.3372 211.852 64.8855 208.466 66.0004L209.663 69.634C213.557 68.3517 216.564 66.3914 218.382 63.5977L215.176 61.5107ZM208.474 65.998C206.081 66.7752 203.873 67.1466 201.84 67.1466V70.9722C204.34 70.9722 206.949 70.5156 209.655 69.6365L208.474 65.998ZM201.84 67.1466C198.708 67.1466 196.027 66.4612 193.739 65.1456L191.832 68.4621C194.774 70.154 198.13 70.9722 201.84 70.9722V67.1466ZM193.745 65.1491C191.332 63.7499 189.358 62.087 187.796 60.1695L184.83 62.5853C186.711 64.8957 189.052 66.8504 191.826 68.4586L193.745 65.1491ZM187.79 60.1626C187.286 59.5495 186.73 58.3012 186.292 56.1281L182.542 56.8853C183.018 59.2451 183.727 61.2439 184.835 62.5922L187.79 60.1626ZM186.295 56.1455C185.877 53.9704 185.603 51.6929 185.477 49.3116L181.657 49.5145C181.792 52.0584 182.085 54.5101 182.538 56.8679L186.295 56.1455ZM185.477 49.3116C185.348 46.8828 185.283 44.454 185.283 42.0252H181.458C181.458 44.5217 181.524 47.0181 181.657 49.5145L185.477 49.3116ZM185.283 42.0252V38.3313H181.458V42.0252H185.283ZM183.312 36.4194L173.669 36.7136L173.786 40.5374L183.429 40.2432L183.312 36.4194ZM175.615 38.3158L173.196 23.5729L169.421 24.1923L171.84 38.9352L175.615 38.3158ZM171.18 25.7911L183.374 26.6083L183.629 22.7913L171.436 21.9741L171.18 25.7911ZM185.412 24.6041L184.66 9.59962L180.839 9.79107L181.591 24.7955L185.412 24.6041ZM252.782 31.5973L251.868 33.2774L251.88 33.2837L252.782 31.5973ZM256.542 34.9643L254.957 36.0366L254.967 36.0506L254.977 36.0645L256.542 34.9643ZM258.666 39.7043L256.809 40.1628L256.813 40.1764L256.816 40.1899L258.666 39.7043ZM258.961 49.7073L257.078 49.37L257.075 49.3837L257.073 49.3974L258.961 49.7073ZM256.411 56.8336L254.838 55.7448L254.83 55.7567L254.822 55.7686L256.411 56.8336ZM247.192 65.7251L248.11 67.4035L248.118 67.3988L248.127 67.394L247.192 65.7251ZM242.322 67.6865L241.846 65.8338L241.831 65.8376L241.816 65.8417L242.322 67.6865ZM232.286 67.4576L232.919 65.6526L232.912 65.6502L232.905 65.6478L232.286 67.4576ZM228.036 65.2021L226.813 66.6729L226.829 66.6858L226.845 66.6984L228.036 65.2021ZM223.492 58.6969L221.715 59.4024L221.716 59.4073L223.492 58.6969ZM226.402 37.2853L227.796 38.5948L227.798 38.5931L226.402 37.2853ZM234.443 31.0416L235.304 32.7498L235.315 32.7443L234.443 31.0416ZM247.846 29.5705L247.334 31.4136L247.346 31.4169L247.358 31.42L247.846 29.5705ZM250.854 37.0891L252.693 36.5636L248.987 36.6716L250.854 37.0891ZM248.435 41.4695L247.07 40.1288L247.064 40.1348L247.058 40.1409L248.435 41.4695ZM243.27 42.9079L242.075 44.4015L242.139 44.4534L242.209 44.4994L243.27 42.9079ZM243.27 37.1872L241.694 36.1021L241.686 36.114L241.678 36.1262L243.27 37.1872ZM246.44 34.8662L247.142 36.6459L246.44 32.9534V34.8662ZM242.256 35.6835L241.541 33.9094L241.531 33.9136L242.256 35.6835ZM238.824 37.8083L240.093 39.2397L240.102 39.2318L240.111 39.2237L238.824 37.8083ZM236.503 40.7177L234.82 39.8088L234.813 39.8211L236.503 40.7177ZM238.464 48.792L237.434 50.4034L237.436 50.4049L238.464 48.792ZM247.552 48.9227L248.795 50.3769L248.802 50.3704L248.81 50.3639L247.552 48.9227ZM250.298 44.9346L252.079 45.6325L252.082 45.6244L250.298 44.9346ZM251.88 33.2837C253.161 33.9694 254.177 34.8838 254.957 36.0366L258.126 33.8921C256.988 32.2117 255.498 30.8815 253.685 29.9108L251.88 33.2837ZM254.977 36.0645C255.812 37.2527 256.426 38.6123 256.809 40.1628L260.523 39.2458C260.034 37.2658 259.232 35.4654 258.106 33.8641L254.977 36.0645ZM256.816 40.1899C257.23 41.7668 257.44 43.4228 257.44 45.1634H261.266C261.266 43.112 261.018 41.1286 260.516 39.2186L256.816 40.1899ZM257.44 45.1634C257.44 46.6259 257.318 48.0274 257.078 49.37L260.843 50.0445C261.126 48.4669 261.266 46.8391 261.266 45.1634H257.44ZM257.073 49.3974C256.849 50.7596 256.538 51.9866 256.146 53.0847L259.749 54.3714C260.228 53.0287 260.592 51.5752 260.848 50.0172L257.073 49.3974ZM256.146 53.0847C255.753 54.1853 255.311 55.0623 254.838 55.7448L257.983 57.9224C258.688 56.905 259.27 55.7117 259.749 54.3714L256.146 53.0847ZM254.822 55.7686C253.517 57.7151 252.136 59.3674 250.684 60.7386L253.311 63.5199C254.997 61.9273 256.558 60.0491 258 57.8985L254.822 55.7686ZM250.684 60.7386C249.213 62.1286 247.736 63.2283 246.258 64.0562L248.127 67.394C249.918 66.3913 251.645 65.0938 253.311 63.5199L250.684 60.7386ZM246.275 64.0467C244.764 64.8729 243.288 65.4636 241.846 65.8338L242.797 69.5392C244.581 69.0812 246.352 68.3644 248.11 67.4035L246.275 64.0467ZM241.816 65.8417C240.382 66.2347 238.971 66.4275 237.582 66.4275V70.2531C239.33 70.2531 241.08 70.01 242.827 69.5313L241.816 65.8417ZM237.582 66.4275C235.936 66.4275 234.385 66.1667 232.919 65.6526L231.653 69.2627C233.543 69.9254 235.523 70.2531 237.582 70.2531V66.4275ZM232.905 65.6478C231.423 65.1408 230.208 64.486 229.228 63.7057L226.845 66.6984C228.219 67.7923 229.836 68.6413 231.667 69.2675L232.905 65.6478ZM229.259 63.7313C227.602 62.353 226.259 60.4635 225.268 57.9865L221.716 59.4073C222.905 62.3785 224.592 64.8258 226.813 66.6729L229.259 63.7313ZM225.27 57.9913C224.273 55.4774 223.771 52.819 223.771 50.0015H219.945C219.945 53.286 220.533 56.4246 221.715 59.4024L225.27 57.9913ZM223.771 50.0015C223.771 45.1392 225.161 41.4007 227.796 38.5948L225.008 35.9758C221.584 39.6205 219.945 44.3596 219.945 50.0015H223.771ZM227.798 38.5931C230.271 35.9538 232.776 34.0237 235.304 32.7497L233.583 29.3334C230.575 30.8489 227.72 33.0813 225.006 35.9774L227.798 38.5931ZM235.315 32.7443C237.833 31.4556 240.369 30.8296 242.943 30.8296V27.004C239.719 27.004 236.589 27.7945 233.572 29.3388L235.315 32.7443ZM242.943 30.8296C244.477 30.8296 245.939 31.026 247.334 31.4136L248.358 27.7275C246.615 27.2434 244.808 27.004 242.943 27.004V30.8296ZM247.358 31.42C248.752 31.7878 250.254 32.399 251.868 33.2773L253.697 29.9172C251.867 28.9214 250.079 28.1814 248.334 27.7211L247.358 31.42ZM248.987 36.6716C248.698 37.9634 248.074 39.1077 247.07 40.1288L249.799 42.8103C251.28 41.3033 252.268 39.5274 252.72 37.5067L248.987 36.6716ZM247.058 40.1409C246.022 41.2148 245.288 41.4527 244.839 41.4527V45.2783C246.743 45.2783 248.407 44.2522 249.811 42.7981L247.058 40.1409ZM244.839 41.4527C244.6 41.4527 244.452 41.3971 244.331 41.3163L242.209 44.4994C243.003 45.0288 243.9 45.2783 244.839 45.2783V41.4527ZM244.464 41.4142C244.457 41.4081 244.399 41.3639 244.335 41.1858C244.266 40.9922 244.202 40.6673 244.202 40.1619H240.376C240.376 41.7216 240.761 43.3505 242.075 44.4015L244.464 41.4142ZM244.202 40.1619C244.202 39.5996 244.379 38.9711 244.861 38.2482L241.678 36.1262C240.852 37.3647 240.376 38.7193 240.376 40.1619H244.202ZM244.845 38.2723C245.249 37.6862 245.953 37.1143 247.142 36.6459L245.739 33.0866C244.052 33.7514 242.642 34.7269 241.694 36.1021L244.845 38.2723ZM246.44 32.9534C244.754 32.9534 243.116 33.2742 241.541 33.9095L242.972 37.4575C244.098 37.0031 245.25 36.779 246.44 36.779V32.9534ZM241.531 33.9136C240.017 34.5338 238.678 35.3558 237.537 36.3929L240.111 39.2237C240.887 38.5173 241.836 37.9228 242.982 37.4534L241.531 33.9136ZM237.555 36.3769C236.434 37.3701 235.518 38.5152 234.82 39.8088L238.186 41.6265C238.664 40.7408 239.295 39.9463 240.093 39.2397L237.555 36.3769ZM234.813 39.8211C234.116 41.1343 233.74 42.5186 233.74 43.9539H237.566C237.566 43.2099 237.756 42.4367 238.193 41.6142L234.813 39.8211ZM233.74 43.9539C233.74 46.7055 235.074 48.8941 237.434 50.4034L239.495 47.1805C238.106 46.2926 237.566 45.2558 237.566 43.9539H233.74ZM237.436 50.4049C239.391 51.6512 241.401 52.3719 243.433 52.3719V48.5463C242.327 48.5463 241.024 48.1556 239.492 47.179L237.436 50.4049ZM243.433 52.3719C245.445 52.3719 247.257 51.691 248.795 50.3769L246.309 47.4685C245.45 48.203 244.515 48.5463 243.433 48.5463V52.3719ZM248.81 50.3639C250.26 49.0981 251.345 47.5054 252.079 45.6325L248.517 44.2367C247.987 45.5891 247.241 46.6552 246.294 47.4816L248.81 50.3639ZM252.082 45.6244C252.79 43.7923 253.159 41.9462 253.159 40.0966H249.333C249.333 41.4287 249.069 42.808 248.514 44.2448L252.082 45.6244ZM253.159 40.0966C253.159 38.8543 253.01 37.6724 252.693 36.5636L249.014 37.6146C249.221 38.3364 249.333 39.1595 249.333 40.0966H253.159ZM266.099 18.26L265.971 16.3515L264.348 16.4603L264.194 18.0794L266.099 18.26ZM282.182 17.1812L283.811 16.1792L283.206 15.1954L282.054 15.2727L282.182 17.1812ZM286.464 24.1441L284.835 25.1462L286.85 28.4219L288.246 24.8388L286.464 24.1441ZM290.223 14.5007L290.175 12.5885L288.903 12.6204L288.441 13.806L290.223 14.5007ZM300.651 14.2392L302.521 13.837L302.188 12.2872L300.603 12.327L300.651 14.2392ZM312.975 71.5438L312.789 73.4475L315.396 73.7029L314.845 71.1417L312.975 71.5438ZM293.95 69.6805L292.067 70.0144L292.32 71.4428L293.764 71.5842L293.95 69.6805ZM290.485 50.1322L292.368 49.7984L291.386 44.2567L288.788 49.2493L290.485 50.1322ZM286.726 57.3566L285.055 58.2881L286.784 61.3887L288.422 58.2396L286.726 57.3566ZM281.659 48.2689L283.329 47.3374L280.355 42.0021L279.755 48.0812L281.659 48.2689ZM280.024 64.8425L280.163 66.7503L281.77 66.6337L281.928 65.0302L280.024 64.8425ZM261.555 66.1828L259.65 66.0022L259.437 68.2543L261.693 68.0905L261.555 66.1828ZM266.227 20.1685L282.31 19.0897L282.054 15.2727L265.971 16.3515L266.227 20.1685ZM280.552 18.1833L284.835 25.1462L288.093 23.142L283.811 16.1792L280.552 18.1833ZM288.246 24.8388L292.006 15.1954L288.441 13.806L284.682 23.4493L288.246 24.8388ZM290.271 16.4129L300.699 16.1514L300.603 12.327L290.175 12.5885L290.271 16.4129ZM298.781 14.6414L311.105 71.946L314.845 71.1417L302.521 13.837L298.781 14.6414ZM313.162 69.6401L294.136 67.7768L293.764 71.5842L312.789 73.4475L313.162 69.6401ZM295.833 69.3467L292.368 49.7984L288.602 50.4661L292.067 70.0144L295.833 69.3467ZM288.788 49.2493L285.029 56.4736L288.422 58.2396L292.182 51.0152L288.788 49.2493ZM288.396 56.4251L283.329 47.3374L279.988 49.2004L285.055 58.2881L288.396 56.4251ZM279.755 48.0812L278.121 64.6548L281.928 65.0302L283.562 48.4567L279.755 48.0812ZM279.886 62.9347L261.416 64.275L261.693 68.0905L280.163 66.7503L279.886 62.9347ZM263.459 66.3633L268.003 18.4405L264.194 18.0794L259.65 66.0022L263.459 66.3633ZM342.506 31.5973L341.591 33.2774L341.603 33.2837L342.506 31.5973ZM346.265 34.9643L344.681 36.0366L344.69 36.0506L344.7 36.0645L346.265 34.9643ZM348.39 39.7043L346.533 40.1628L346.536 40.1764L346.54 40.1899L348.39 39.7043ZM348.684 49.7073L346.801 49.37L346.799 49.3837L346.796 49.3974L348.684 49.7073ZM346.134 56.8336L344.562 55.7448L344.553 55.7567L344.545 55.7686L346.134 56.8336ZM336.916 65.7251L337.833 67.4035L337.842 67.3988L337.85 67.394L336.916 65.7251ZM332.045 67.6865L331.569 65.8338L331.554 65.8376L331.54 65.8417L332.045 67.6865ZM322.009 67.4576L322.642 65.6526L322.635 65.6502L322.629 65.6478L322.009 67.4576ZM317.76 65.2021L316.537 66.6729L316.552 66.6858L316.568 66.6984L317.76 65.2021ZM313.216 58.6969L311.438 59.4024L311.44 59.4073L313.216 58.6969ZM316.125 37.2853L317.52 38.5948L317.521 38.5931L316.125 37.2853ZM324.167 31.0416L325.028 32.7498L325.038 32.7443L324.167 31.0416ZM337.57 29.5705L337.058 31.4136L337.07 31.4169L337.082 31.42L337.57 29.5705ZM340.577 37.0891L342.416 36.5636L338.71 36.6716L340.577 37.0891ZM338.158 41.4695L336.794 40.1288L336.788 40.1348L336.782 40.1409L338.158 41.4695ZM332.993 42.9079L331.798 44.4015L331.863 44.4534L331.932 44.4994L332.993 42.9079ZM332.993 37.1872L331.418 36.1021L331.41 36.114L331.401 36.1262L332.993 37.1872ZM336.164 34.8662L336.865 36.6459L336.164 32.9534V34.8662ZM331.98 35.6835L331.264 33.9094L331.254 33.9136L331.98 35.6835ZM328.547 37.8083L329.816 39.2397L329.825 39.2318L329.834 39.2237L328.547 37.8083ZM326.226 40.7177L324.543 39.8088L324.537 39.8211L326.226 40.7177ZM328.188 48.792L327.157 50.4034L327.159 50.4049L328.188 48.792ZM337.275 48.9227L338.518 50.3769L338.526 50.3704L338.533 50.3639L337.275 48.9227ZM340.021 44.9346L341.802 45.6325L341.805 45.6244L340.021 44.9346ZM341.603 33.2837C342.884 33.9694 343.901 34.8838 344.681 36.0366L347.849 33.8921C346.712 32.2117 345.222 30.8815 343.408 29.9108L341.603 33.2837ZM344.7 36.0645C345.536 37.2527 346.15 38.6123 346.533 40.1628L350.247 39.2458C349.758 37.2658 348.956 35.4654 347.83 33.8641L344.7 36.0645ZM346.54 40.1899C346.954 41.7668 347.163 43.4228 347.163 45.1634H350.989C350.989 43.112 350.741 41.1286 350.24 39.2186L346.54 40.1899ZM347.163 45.1634C347.163 46.6259 347.042 48.0274 346.801 49.37L350.567 50.0445C350.849 48.4669 350.989 46.8391 350.989 45.1634H347.163ZM346.796 49.3974C346.573 50.7596 346.261 51.9866 345.869 53.0847L349.472 54.3714C349.952 53.0287 350.316 51.5752 350.572 50.0172L346.796 49.3974ZM345.869 53.0847C345.476 54.1853 345.034 55.0623 344.562 55.7448L347.707 57.9224C348.411 56.905 348.993 55.7117 349.472 54.3714L345.869 53.0847ZM344.545 55.7686C343.241 57.7151 341.86 59.3674 340.408 60.7386L343.035 63.5199C344.721 61.9273 346.282 60.0491 347.723 57.8985L344.545 55.7686ZM340.408 60.7386C338.936 62.1286 337.46 63.2283 335.981 64.0562L337.85 67.394C339.641 66.3913 341.368 65.0938 343.035 63.5199L340.408 60.7386ZM335.998 64.0467C334.487 64.8729 333.011 65.4636 331.569 65.8338L332.521 69.5392C334.304 69.0812 336.076 68.3644 337.833 67.4035L335.998 64.0467ZM331.54 65.8417C330.105 66.2347 328.695 66.4275 327.305 66.4275V70.2531C329.053 70.2531 330.803 70.01 332.55 69.5313L331.54 65.8417ZM327.305 66.4275C325.659 66.4275 324.109 66.1667 322.642 65.6526L321.376 69.2627C323.266 69.9254 325.246 70.2531 327.305 70.2531V66.4275ZM322.629 65.6478C321.146 65.1408 319.931 64.486 318.951 63.7057L316.568 66.6984C317.942 67.7923 319.56 68.6413 321.39 69.2675L322.629 65.6478ZM318.983 63.7313C317.325 62.353 315.983 60.4635 314.992 57.9865L311.44 59.4073C312.628 62.3785 314.315 64.8258 316.537 66.6729L318.983 63.7313ZM314.994 57.9913C313.996 55.4774 313.494 52.819 313.494 50.0015H309.669C309.669 53.286 310.256 56.4246 311.438 59.4024L314.994 57.9913ZM313.494 50.0015C313.494 45.1392 314.884 41.4007 317.52 38.5948L314.731 35.9758C311.308 39.6205 309.669 44.3596 309.669 50.0015H313.494ZM317.521 38.5931C319.994 35.9538 322.5 34.0237 325.028 32.7497L323.306 29.3334C320.299 30.8489 317.443 33.0813 314.729 35.9774L317.521 38.5931ZM325.038 32.7443C327.556 31.4556 330.092 30.8296 332.666 30.8296V27.004C329.443 27.004 326.313 27.7945 323.295 29.3388L325.038 32.7443ZM332.666 30.8296C334.201 30.8296 335.662 31.026 337.058 31.4136L338.082 27.7275C336.339 27.2434 334.531 27.004 332.666 27.004V30.8296ZM337.082 31.42C338.475 31.7878 339.978 32.399 341.591 33.2773L343.42 29.9172C341.591 28.9214 339.802 28.1814 338.058 27.7211L337.082 31.42ZM338.71 36.6716C338.421 37.9634 337.797 39.1077 336.794 40.1288L339.522 42.8103C341.003 41.3033 341.992 39.5274 342.444 37.5067L338.71 36.6716ZM336.782 40.1409C335.745 41.2148 335.011 41.4527 334.562 41.4527V45.2783C336.467 45.2783 338.13 44.2522 339.534 42.7981L336.782 40.1409ZM334.562 41.4527C334.324 41.4527 334.175 41.3971 334.054 41.3163L331.932 44.4994C332.726 45.0288 333.624 45.2783 334.562 45.2783V41.4527ZM334.188 41.4142C334.18 41.4081 334.123 41.3639 334.059 41.1858C333.99 40.9922 333.925 40.6673 333.925 40.1619H330.1C330.1 41.7216 330.484 43.3505 331.798 44.4015L334.188 41.4142ZM333.925 40.1619C333.925 39.5996 334.103 38.9711 334.585 38.2482L331.401 36.1262C330.576 37.3647 330.1 38.7193 330.1 40.1619H333.925ZM334.568 38.2723C334.972 37.6862 335.676 37.1143 336.865 36.6459L335.463 33.0866C333.775 33.7514 332.365 34.7269 331.418 36.1021L334.568 38.2723ZM336.164 32.9534C334.477 32.9534 332.84 33.2742 331.264 33.9095L332.695 37.4575C333.822 37.0031 334.974 36.779 336.164 36.779V32.9534ZM331.254 33.9136C329.741 34.5338 328.401 35.3558 327.261 36.3929L329.834 39.2237C330.611 38.5173 331.56 37.9228 332.705 37.4534L331.254 33.9136ZM327.279 36.3769C326.158 37.3701 325.242 38.5152 324.543 39.8088L327.909 41.6265C328.388 40.7408 329.019 39.9463 329.816 39.2397L327.279 36.3769ZM324.537 39.8211C323.84 41.1343 323.464 42.5186 323.464 43.9539H327.289C327.289 43.2099 327.48 42.4367 327.916 41.6142L324.537 39.8211ZM323.464 43.9539C323.464 46.7055 324.797 48.8941 327.157 50.4034L329.218 47.1805C327.83 46.2926 327.289 45.2558 327.289 43.9539H323.464ZM327.159 50.4049C329.114 51.6512 331.124 52.3719 333.156 52.3719V48.5463C332.051 48.5463 330.748 48.1556 329.216 47.179L327.159 50.4049ZM333.156 52.3719C335.169 52.3719 336.98 51.691 338.518 50.3769L336.033 47.4685C335.173 48.203 334.239 48.5463 333.156 48.5463V52.3719ZM338.533 50.3639C339.983 49.0981 341.068 47.5054 341.802 45.6325L338.24 44.2367C337.71 45.5891 336.965 46.6552 336.018 47.4816L338.533 50.3639ZM341.805 45.6244C342.514 43.7923 342.882 41.9462 342.882 40.0966H339.056C339.056 41.4287 338.793 42.808 338.237 44.2448L341.805 45.6244ZM342.882 40.0966C342.882 38.8543 342.733 37.6724 342.416 36.5636L338.738 37.6146C338.944 38.3364 339.056 39.1595 339.056 40.0966H342.882ZM365.204 29.2437L363.756 30.4939L364.594 31.4634L365.809 31.0583L365.204 29.2437ZM371.448 27.413L371.89 29.2741L371.901 29.2715L371.912 29.2687L371.448 27.413ZM382.072 28.1649L381.111 29.8188L381.121 29.8245L382.072 28.1649ZM392.532 41.3061L390.672 41.7491L390.674 41.7585L390.676 41.7679L392.532 41.3061ZM393.905 59.2526L395.805 59.4797L395.805 59.4773L393.905 59.2526ZM392.794 67L392.908 68.9094L394.442 68.8176L394.683 67.2997L392.794 67ZM379.13 67.8172L377.218 67.7408L377.134 69.8528L379.244 69.7266L379.13 67.8172ZM375.665 41.3061L377.445 40.6068L377.44 40.5953L377.436 40.5838L375.665 41.3061ZM369.225 42.6463L367.472 41.8797L367.469 41.8862L367.467 41.8928L369.225 42.6463ZM368.408 45.2615L366.54 44.8466L366.536 44.8664L366.532 44.8864L368.408 45.2615ZM367.95 48.5631L366.045 48.393L366.043 48.4099L366.042 48.4269L367.95 48.5631ZM368.408 65.6597L368.628 67.5598L370.454 67.3478L370.315 65.5149L368.408 65.6597ZM352.357 67.523L350.462 67.7815L350.715 69.6393L352.578 69.4231L352.357 67.523ZM351.115 56.5394L349.206 56.6666L349.207 56.6803L349.208 56.694L351.115 56.5394ZM351.082 47.7786L352.992 47.8877L352.997 47.8037L352.994 47.7196L351.082 47.7786ZM350.494 28.7206L350.252 26.8231L348.528 27.0425L348.582 28.7796L350.494 28.7206ZM363.341 27.0861L364.788 25.8359L364.117 25.0591L363.099 25.1886L363.341 27.0861ZM365.809 31.0583C368.195 30.263 370.219 29.6709 371.89 29.2741L371.006 25.552C369.19 25.9833 367.051 26.6116 364.599 27.429L365.809 31.0583ZM371.912 29.2687C373.523 28.866 375.033 28.6721 376.449 28.6721V24.8465C374.683 24.8465 372.86 25.0884 370.984 25.5574L371.912 29.2687ZM376.449 28.6721C378.297 28.6721 379.83 29.0746 381.111 29.8188L383.033 26.511C381.088 25.381 378.873 24.8465 376.449 24.8465V28.6721ZM381.121 29.8245C382.786 30.7787 384.709 32.487 386.882 35.0809L389.815 32.6248C387.497 29.8576 385.237 27.774 383.023 26.5053L381.121 29.8245ZM386.882 35.0809C389.021 37.6356 390.221 39.8556 390.672 41.7491L394.393 40.863C393.754 38.18 392.165 35.4312 389.815 32.6248L386.882 35.0809ZM390.676 41.7679C391.807 46.3115 392.352 50.2035 392.352 53.4666H396.178C396.178 49.7995 395.568 45.5845 394.389 40.8442L390.676 41.7679ZM392.352 53.4666C392.352 55.2141 392.238 57.0674 392.006 59.0279L395.805 59.4773C396.052 57.3843 396.178 55.3802 396.178 53.4666H392.352ZM392.006 59.0255C391.77 60.9965 391.404 63.5523 390.905 66.7003L394.683 67.2997C395.186 64.1277 395.561 61.5186 395.805 59.4797L392.006 59.0255ZM392.68 65.0906L379.015 65.9078L379.244 69.7266L392.908 68.9094L392.68 65.0906ZM381.041 67.8937C381.086 66.7654 381.108 65.166 381.108 63.11H377.282C377.282 65.1509 377.26 66.6898 377.218 67.7408L381.041 67.8937ZM381.108 63.11C381.108 54.4016 379.91 46.8824 377.445 40.6068L373.884 42.0053C376.127 47.7159 377.282 54.7326 377.282 63.11H381.108ZM377.436 40.5838C376.95 39.3919 376.416 38.3578 375.804 37.5894C375.226 36.8627 374.293 36.0263 372.984 36.0263V39.8519C372.547 39.8519 372.497 39.5766 372.811 39.9722C373.093 40.3262 373.464 40.9756 373.893 42.0283L377.436 40.5838ZM372.984 36.0263C371.512 36.0263 370.422 37.0176 369.7 37.9222C368.921 38.8972 368.186 40.2489 367.472 41.8797L370.977 43.413C371.637 41.9056 372.214 40.9037 372.689 40.3095C373.22 39.645 373.323 39.8519 372.984 39.8519V36.0263ZM367.467 41.8928C367.084 42.7848 366.779 43.7732 366.54 44.8466L370.275 45.6764C370.472 44.7884 370.711 44.0334 370.983 43.3998L367.467 41.8928ZM366.532 44.8864C366.32 45.9479 366.158 47.1185 366.045 48.393L369.855 48.7332C369.959 47.567 370.103 46.5365 370.283 45.6366L366.532 44.8864ZM366.042 48.4269C365.951 49.7052 365.906 51.1911 365.906 52.8781H369.732C369.732 51.2526 369.775 49.8619 369.858 48.6994L366.042 48.4269ZM365.906 52.8781C365.906 56.3011 366.106 60.6143 366.5 65.8046L370.315 65.5149C369.924 60.3753 369.732 56.1675 369.732 52.8781H365.906ZM368.187 63.7597L352.136 65.623L352.578 69.4231L368.628 67.5598L368.187 63.7597ZM354.252 67.2646C353.993 65.3599 353.754 63.4664 353.538 61.584L349.738 62.0208C349.957 63.9303 350.198 65.8506 350.462 67.7815L354.252 67.2646ZM353.538 61.584C353.322 59.7056 353.15 57.9728 353.021 56.3848L349.208 56.694C349.341 58.3313 349.518 60.1072 349.738 62.0208L353.538 61.584ZM353.023 56.4121C352.918 54.8255 352.864 53.114 352.864 51.2764H349.039C349.039 53.1871 349.094 54.9843 349.206 56.6666L353.023 56.4121ZM352.864 51.2764C352.864 50.5255 352.905 49.4028 352.992 47.8877L349.172 47.6695C349.085 49.2054 349.039 50.4146 349.039 51.2764H352.864ZM352.994 47.7196L352.406 28.6616L348.582 28.7796L349.17 47.8376L352.994 47.7196ZM350.735 30.6181L363.582 28.9837L363.099 25.1886L350.252 26.8231L350.735 30.6181ZM361.893 28.3364L363.756 30.4939L366.652 27.9934L364.788 25.8359L361.893 28.3364Z" fill="#222222"/>
</svg>
