<svg width="26" height="26" viewBox="0 0 26 26" fill="none" xmlns="http://www.w3.org/2000/svg">
<path d="M11.044 16.2494V25.9956H7.15092V16.2494H11.044ZM19.8309 14.2996H15.2802C15.0216 14.2996 14.7736 14.4023 14.5908 14.5852C14.408 14.768 14.3053 15.016 14.3053 15.2745V19.8266C14.3053 20.3647 14.7407 20.8015 15.2802 20.8015H19.8309C20.0895 20.8015 20.3374 20.6987 20.5203 20.5159C20.7031 20.3331 20.8058 20.0851 20.8058 19.8266V15.2745C20.8058 15.016 20.7031 14.768 20.5203 14.5852C20.3374 14.4023 20.0895 14.2996 19.8309 14.2996ZM18.856 16.2494V18.8517H16.2537V16.2494H18.8547H18.856ZM8.01531 6.50184H1.95283V8.01616C1.95283 9.54998 3.09409 10.8199 4.57462 11.0201L4.77739 11.0409L4.98537 11.0474C6.59068 11.0474 7.90353 9.80085 8.01011 8.22283L8.01791 8.01486V6.50314L8.01531 6.50184ZM16.0289 6.50184H9.96638V8.01616C9.96638 9.54998 11.1076 10.8199 12.5882 11.0201L12.791 11.0409L12.9989 11.0474C14.6042 11.0474 15.9171 9.80085 16.0237 8.22283L16.0315 8.01486V6.50314L16.0289 6.50184ZM24.045 6.50184H17.9812L17.9825 8.01616C17.9825 9.54998 19.1238 10.8199 20.603 11.0201L20.8071 11.0409L21.0151 11.0474C22.6191 11.0474 23.9332 9.80085 24.0398 8.22283L24.0463 8.01486V6.50314L24.045 6.50184ZM9.17998 1.94977H5.62489L3.21238 4.55207H8.38187L9.17998 1.94977ZM14.7797 1.94977H11.2207L10.42 4.55207H15.5804L14.7797 1.94977ZM20.3743 1.94977H16.8218L17.6212 4.55207H22.7894L20.3743 1.94977ZM0.264324 4.86403L4.48623 0.311964C4.63883 0.147261 4.84361 0.0402814 5.06596 0.00909934L5.20114 4.52393e-07H20.7993C21.0243 -0.000216209 21.2424 0.0773961 21.4167 0.219675L21.5142 0.310664L25.7686 4.89912L25.8076 4.94852C25.9402 5.1253 26 5.32548 26 5.52045L25.9974 8.01616C25.9974 9.30821 25.5061 10.4859 24.6976 11.3698V25.0221C24.6975 25.2576 24.6122 25.4853 24.4574 25.6628C24.3025 25.8403 24.0886 25.9558 23.8553 25.9878L23.7227 25.9969L12.995 25.9956V15.2745C12.995 15.016 12.8923 14.768 12.7095 14.5852C12.5267 14.4023 12.2787 14.2996 12.0201 14.2996H6.17603C5.91747 14.2996 5.66951 14.4023 5.48668 14.5852C5.30385 14.768 5.20114 15.016 5.20114 15.2745V25.9956L2.27909 25.9969C2.04328 25.9972 1.81536 25.9121 1.63754 25.7572C1.45973 25.6023 1.34407 25.3883 1.312 25.1546L1.3042 25.0221L1.3016 11.3711C0.523515 10.5198 0.066207 9.42408 0.00825483 8.27223L0.00175544 8.01616V5.57635C-0.0095391 5.39116 0.0338548 5.20673 0.126541 5.04601L0.191533 4.94722L0.263025 4.86273L0.264324 4.86403Z" fill="#FFCB05"/>
</svg>
