<svg width="26" height="24" viewBox="0 0 26 24" fill="none" xmlns="http://www.w3.org/2000/svg">
<path fill-rule="evenodd" clip-rule="evenodd" d="M23.4791 0.295346C23.7295 0.545788 23.8302 0.909267 23.7443 1.25287L22.6564 5.60443C22.6121 5.78173 22.5204 5.94364 22.3912 6.07286L11.5123 16.9518C11.2739 17.1902 10.9322 17.2936 10.6016 17.2275L7.88185 16.6836C7.4827 16.6037 7.1707 16.2917 7.09087 15.8926L6.54693 13.1729C6.48081 12.8423 6.58429 12.5005 6.82267 12.2621L17.7016 1.38324C17.8308 1.25401 17.9927 1.16234 18.17 1.11802L22.5216 0.0301267C22.8652 -0.0557742 23.2287 0.0449037 23.4791 0.295346ZM18.93 3.00667L8.6302 13.3065L8.93648 14.838L10.4679 15.1442L20.7678 4.84439L21.3803 2.3941L18.93 3.00667ZM4.02742 13.0848C4.56767 12.9498 5.11511 13.2782 5.25017 13.8185L6.19133 17.5831L9.95598 18.5243C10.4962 18.6593 10.8247 19.2068 10.6896 19.747C10.5546 20.2873 10.0071 20.6157 9.46688 20.4807L5.66916 19.5312L3.52214 21.6783L3.89706 22.0532C4.29082 22.4469 4.29082 23.0854 3.89706 23.4791C3.50329 23.8729 2.86487 23.8729 2.47111 23.4791L0.295324 21.3033C-0.0984413 20.9096 -0.0984415 20.2712 0.295324 19.8774C0.68909 19.4836 1.32751 19.4836 1.72128 19.8774L2.09619 20.2523L4.24321 18.1053L3.29378 14.3076C3.15872 13.7673 3.48718 13.2199 4.02742 13.0848Z" fill="#FFCB05"/>
<path fill-rule="evenodd" clip-rule="evenodd" d="M2.52093 0.295346C2.77137 0.0449037 3.13485 -0.0557742 3.47846 0.0301267L7.83002 1.11802C8.00731 1.16234 8.16922 1.25401 8.29845 1.38324L13.617 6.70182C14.0108 7.09558 14.0108 7.734 13.617 8.12777L10.3534 11.3914C9.95959 11.7852 9.32117 11.7852 8.9274 11.3914L3.60882 6.07286C3.4796 5.94364 3.38793 5.78173 3.3436 5.60443L2.25571 1.25287C2.16981 0.909267 2.27049 0.545788 2.52093 0.295346ZM4.61968 2.3941L5.23226 4.84439L9.64038 9.25251L11.4781 7.41479L7.06998 3.00667L4.61968 2.3941ZM15.5756 10.0864C15.9694 9.6926 16.6078 9.6926 17.0016 10.0864L19.1774 12.2621C19.4157 12.5005 19.5192 12.8423 19.4531 13.1729L18.9092 15.8926C18.8293 16.2917 18.5173 16.6037 18.1182 16.6836L15.3985 17.2275C15.0679 17.2936 14.7261 17.1902 14.4877 16.9518L12.312 14.776C11.9182 14.3822 11.9182 13.7438 12.312 13.35C12.7057 12.9563 13.3441 12.9563 13.7379 13.35L15.5321 15.1442L17.0635 14.838L17.3698 13.3065L15.5756 11.5123C15.1819 11.1186 15.1819 10.4801 15.5756 10.0864ZM21.9726 13.0848C22.5128 13.2199 22.8413 13.7673 22.7062 14.3076L21.7568 18.1053L23.9038 20.2523L24.2788 19.8774C24.6725 19.4836 25.3109 19.4836 25.7047 19.8774C26.0985 20.2712 26.0985 20.9096 25.7047 21.3033L23.5289 23.4791C23.1352 23.8729 22.4967 23.8729 22.103 23.4791C21.7092 23.0854 21.7092 22.4469 22.103 22.0532L22.4779 21.6783L20.3309 19.5312L16.5332 20.4807C15.9929 20.6157 15.4455 20.2873 15.3104 19.747C15.1753 19.2068 15.5038 18.6593 16.0441 18.5243L19.8087 17.5831L20.7499 13.8185C20.8849 13.2782 21.4324 12.9498 21.9726 13.0848Z" fill="#FFCB05"/>
</svg>
