<svg width="26" height="25" viewBox="0 0 26 25" fill="none" xmlns="http://www.w3.org/2000/svg">
<path d="M25.4608 12.2993L14.3795 1.02343L13.6367 0.267226C13.4675 0.0960633 13.2386 0 13.0001 0C12.7615 0 12.5326 0.0960633 12.3634 0.267226L0.539273 12.2993C0.365858 12.4752 0.228805 12.6846 0.136204 12.9153C0.0436032 13.146 -0.0026689 13.3932 0.000118871 13.6424C0.0115902 14.6701 0.851868 15.4905 1.86135 15.4905H3.08018V25H22.9199V15.4905H24.1646C24.655 15.4905 25.1167 15.2949 25.4637 14.9416C25.6346 14.7682 25.7699 14.5621 25.862 14.335C25.9541 14.108 26.001 13.8646 26 13.619C26 13.1227 25.8078 12.6526 25.4608 12.2993ZM14.606 22.8978H11.3941V16.9416H14.606V22.8978ZM20.8551 13.3884V22.8978H16.4415V16.2409C16.4415 15.5956 15.9281 15.073 15.2943 15.073H10.7058C10.072 15.073 9.55864 15.5956 9.55864 16.2409V22.8978H5.14503V13.3884H2.3919L13.0029 2.59423L13.6654 3.26868L23.6111 13.3884H20.8551Z" fill="white"/>
</svg>
