<svg width="26" height="27" viewBox="0 0 26 27" fill="none" xmlns="http://www.w3.org/2000/svg">
<path d="M11.044 17.0238V26.7701H7.15092V17.0238H11.044ZM19.8309 15.0741H15.2802C15.0216 15.0741 14.7736 15.1768 14.5908 15.3596C14.408 15.5424 14.3053 15.7904 14.3053 16.049V20.601C14.3053 21.1392 14.7407 21.5759 15.2802 21.5759H19.8309C20.0895 21.5759 20.3374 21.4732 20.5203 21.2904C20.7031 21.1075 20.8058 20.8596 20.8058 20.601V16.049C20.8058 15.7904 20.7031 15.5424 20.5203 15.3596C20.3374 15.1768 20.0895 15.0741 19.8309 15.0741ZM18.856 17.0238V19.6261H16.2537V17.0238H18.8547H18.856ZM8.01531 7.27628H1.95283V8.7906C1.95283 10.3244 3.09409 11.5944 4.57462 11.7945L4.77739 11.8153L4.98537 11.8218C6.59068 11.8218 7.90353 10.5753 8.01011 8.99728L8.01791 8.7893V7.27758L8.01531 7.27628ZM16.0289 7.27628H9.96638V8.7906C9.96638 10.3244 11.1076 11.5944 12.5882 11.7945L12.791 11.8153L12.9989 11.8218C14.6042 11.8218 15.9171 10.5753 16.0237 8.99728L16.0315 8.7893V7.27758L16.0289 7.27628ZM24.045 7.27628H17.9812L17.9825 8.7906C17.9825 10.3244 19.1238 11.5944 20.603 11.7945L20.8071 11.8153L21.0151 11.8218C22.6191 11.8218 23.9332 10.5753 24.0398 8.99728L24.0463 8.7893V7.27758L24.045 7.27628ZM9.17998 2.72422H5.62489L3.21238 5.32651H8.38187L9.17998 2.72422ZM14.7797 2.72422H11.2207L10.42 5.32651H15.5804L14.7797 2.72422ZM20.3743 2.72422H16.8218L17.6212 5.32651H22.7894L20.3743 2.72422ZM0.264324 5.63847L4.48623 1.08641C4.63883 0.921705 4.84361 0.814726 5.06596 0.783544L5.20114 0.774445H20.7993C21.0243 0.774228 21.2424 0.851841 21.4167 0.994119L21.5142 1.08511L25.7686 5.67357L25.8076 5.72296C25.9402 5.89974 26 6.09992 26 6.2949L25.9974 8.7906C25.9974 10.0827 25.5061 11.2603 24.6976 12.1442V25.7965C24.6975 26.0321 24.6122 26.2597 24.4574 26.4372C24.3025 26.6148 24.0886 26.7303 23.8553 26.7623L23.7227 26.7714L12.995 26.7701V16.049C12.995 15.7904 12.8923 15.5424 12.7095 15.3596C12.5267 15.1768 12.2787 15.0741 12.0201 15.0741H6.17603C5.91747 15.0741 5.66951 15.1768 5.48668 15.3596C5.30385 15.5424 5.20114 15.7904 5.20114 16.049V26.7701L2.27909 26.7714C2.04328 26.7717 1.81536 26.6865 1.63754 26.5316C1.45973 26.3768 1.34407 26.1627 1.312 25.9291L1.3042 25.7965L1.3016 12.1455C0.523515 11.2942 0.066207 10.1985 0.00825483 9.04667L0.00175544 8.7906V6.35079C-0.0095391 6.1656 0.0338548 5.98118 0.126541 5.82045L0.191533 5.72166L0.263025 5.63717L0.264324 5.63847Z" fill="white"/>
</svg>
