<svg width="95" height="15" viewBox="0 0 95 15" fill="none" xmlns="http://www.w3.org/2000/svg">
<path d="M0.523438 0.445312H5.5918C6.84831 0.445312 7.91927 0.936849 8.80469 1.91992C9.6901 2.90299 10.1328 3.95117 10.1328 5.06445C10.1328 6.24284 9.69661 7.32357 8.82422 8.30664C7.94531 9.28971 6.86784 9.78125 5.5918 9.78125H3.18945V13.6484C3.18945 13.7526 3.15365 13.8372 3.08203 13.9023C3.01693 13.9674 2.9388 14 2.84766 14H0.523438C0.432292 14 0.350911 13.9674 0.279297 13.9023C0.214193 13.8307 0.181641 13.7461 0.181641 13.6484V0.777344C0.181641 0.686198 0.210938 0.608073 0.269531 0.542969C0.334635 0.477865 0.419271 0.445312 0.523438 0.445312ZM3.18945 3.32617V6.91992H5.45508C6.00846 6.91992 6.43815 6.73763 6.74414 6.37305C7.05013 6.00846 7.20312 5.57878 7.20312 5.08398C7.1901 4.58919 7.03385 4.17253 6.73438 3.83398C6.4349 3.49544 6.00846 3.32617 5.45508 3.32617H3.18945ZM14.7422 0.777344V11.0508H20.0156C20.1068 11.0508 20.1849 11.0833 20.25 11.1484C20.3151 11.2135 20.3477 11.2949 20.3477 11.3926V13.6484C20.3477 13.7396 20.3151 13.821 20.25 13.8926C20.1849 13.9642 20.1068 14 20.0156 14H12.0469C11.8451 14 11.7441 13.8861 11.7441 13.6582V0.777344C11.7441 0.686198 11.7734 0.608073 11.832 0.542969C11.8971 0.477865 11.9818 0.445312 12.0859 0.445312H14.3906C14.4818 0.445312 14.5632 0.477865 14.6348 0.542969C14.7064 0.608073 14.7422 0.686198 14.7422 0.777344ZM29 0.523438L35.3574 13.6094C35.416 13.7201 35.4193 13.8145 35.3672 13.8926C35.3216 13.9642 35.237 14 35.1133 14H32.5938C32.4245 14 32.304 13.9251 32.2324 13.7754L31.5586 12.3008H25.7578L25.084 13.7754C25.0124 13.9251 24.8919 14 24.7227 14H22.1836C22.0729 14 21.9948 13.9642 21.9492 13.8926C21.9036 13.8145 21.9036 13.7201 21.9492 13.6094L28.3164 0.523438C28.388 0.41276 28.4727 0.357422 28.5703 0.357422H28.7266C28.8372 0.357422 28.9284 0.41276 29 0.523438ZM26.998 9.625H30.3184L28.6582 6.03125L26.998 9.625ZM45.8555 9.94727L47.7012 11.5098C47.89 11.666 47.8997 11.8223 47.7305 11.9785C47.099 12.6556 46.347 13.1829 45.4746 13.5605C44.6087 13.9316 43.694 14.1172 42.7305 14.1172C40.8164 14.1172 39.179 13.4466 37.8184 12.1055C36.4642 10.7708 35.7871 9.14648 35.7871 7.23242C35.7871 5.32487 36.4642 3.69401 37.8184 2.33984C39.179 0.992188 40.8164 0.318359 42.7305 0.318359C43.7005 0.318359 44.625 0.507161 45.5039 0.884766C46.3828 1.26237 47.138 1.79297 47.7695 2.47656C47.9258 2.63281 47.9128 2.78906 47.7305 2.94531L45.875 4.52734C45.7253 4.65104 45.5658 4.64453 45.3965 4.50781C44.6283 3.81771 43.7233 3.47266 42.6816 3.47266C41.6335 3.47266 40.7448 3.83398 40.0156 4.55664C39.2865 5.2793 38.9219 6.16797 38.9219 7.22266C38.9219 8.29036 39.2865 9.17904 40.0156 9.88867C40.7513 10.6048 41.64 10.9629 42.6816 10.9629C43.7038 10.9629 44.6022 10.6309 45.377 9.9668C45.5462 9.83008 45.7057 9.82357 45.8555 9.94727ZM58.3652 3.375H52.8086V5.91406H55.6895C55.7806 5.91406 55.862 5.94987 55.9336 6.02148C56.0052 6.08659 56.041 6.16471 56.041 6.25586V8.49219C56.041 8.59635 56.0085 8.68099 55.9434 8.74609C55.8783 8.8112 55.7936 8.84375 55.6895 8.84375H52.8281V11.0508H58.3652C58.4564 11.0508 58.5378 11.0866 58.6094 11.1582C58.6875 11.2233 58.7266 11.3014 58.7266 11.3926V13.6484C58.7266 13.7526 58.6908 13.8372 58.6191 13.9023C58.554 13.9674 58.4694 14 58.3652 14H50.2012C50.097 14 50.0091 13.9674 49.9375 13.9023C49.8724 13.8307 49.8398 13.7461 49.8398 13.6484V0.777344C49.8398 0.686198 49.8724 0.608073 49.9375 0.542969C50.0026 0.477865 50.084 0.445312 50.1816 0.445312H58.3652C58.4629 0.445312 58.5475 0.477865 58.6191 0.542969C58.6908 0.608073 58.7266 0.686198 58.7266 0.777344V3.0332C58.7266 3.26107 58.6061 3.375 58.3652 3.375Z" fill="#FFCB05"/>
<path d="M73.4922 6.69531C74.1172 7.06641 74.6087 7.55469 74.9668 8.16016C75.3249 8.75911 75.5039 9.40039 75.5039 10.084C75.5039 11.1842 75.1035 12.112 74.3027 12.8672C73.4954 13.6224 72.5645 14 71.5098 14H66.0996C65.9954 14 65.9108 13.9674 65.8457 13.9023C65.7806 13.8307 65.748 13.7461 65.748 13.6484V0.777344C65.748 0.686198 65.7773 0.608073 65.8359 0.542969C65.901 0.477865 65.9824 0.445312 66.0801 0.445312H70.9824C72.0566 0.445312 72.9518 0.826172 73.668 1.58789C74.3841 2.35612 74.7422 3.17643 74.7422 4.04883C74.7422 5.11654 74.3255 5.9987 73.4922 6.69531ZM68.6777 3.13086V5.77734H70.3867C70.8164 5.77734 71.1582 5.63737 71.4121 5.35742C71.653 5.08398 71.7799 4.78451 71.793 4.45898C71.793 4.13997 71.6693 3.83724 71.4219 3.55078C71.181 3.27083 70.8359 3.13086 70.3867 3.13086H68.6777ZM68.6973 8.51172V11.3047H70.8652C71.3535 11.3047 71.7344 11.1582 72.0078 10.8652C72.2682 10.5723 72.4049 10.2533 72.418 9.9082C72.4245 9.56966 72.291 9.25065 72.0176 8.95117C71.7376 8.6582 71.3535 8.51172 70.8652 8.51172H68.6973ZM78.0625 0.445312H80.3281C80.4258 0.445312 80.5104 0.477865 80.582 0.542969C80.6536 0.608073 80.6895 0.686198 80.6895 0.777344V13.6484C80.6895 13.7396 80.6536 13.821 80.582 13.8926C80.5169 13.9642 80.4388 14 80.3477 14H78.0723C77.9681 14 77.8835 13.9674 77.8184 13.9023C77.7533 13.8307 77.7207 13.7461 77.7207 13.6484V0.777344C77.7207 0.686198 77.75 0.608073 77.8086 0.542969C77.8737 0.477865 77.9583 0.445312 78.0625 0.445312ZM83.4043 0.445312H87.877C88.9447 0.445312 89.9245 0.64388 90.8164 1.04102C91.7148 1.44466 92.4538 1.96875 93.0332 2.61328C93.6126 3.26432 94.0586 3.98698 94.3711 4.78125C94.6836 5.56901 94.8398 6.36654 94.8398 7.17383C94.8398 8.39128 94.5729 9.51107 94.0391 10.5332C93.5052 11.5488 92.7012 12.3822 91.627 13.0332C90.5527 13.6777 89.3027 14 87.877 14H83.4238C83.3197 14 83.2318 13.9674 83.1602 13.9023C83.0951 13.8307 83.0625 13.7461 83.0625 13.6484V0.777344C83.0625 0.686198 83.0951 0.608073 83.1602 0.542969C83.2253 0.477865 83.3066 0.445312 83.4043 0.445312ZM86.0508 3.4043V11.0215H87.877C89.0618 11.0215 89.9896 10.6276 90.6602 9.83984C91.3372 9.03906 91.6628 8.1276 91.6367 7.10547C91.6302 6.09635 91.2982 5.22396 90.6406 4.48828C89.9896 3.76562 89.0684 3.4043 87.877 3.4043H86.0508Z" fill="white"/>
</svg>
