<svg width="37" height="36" viewBox="0 0 37 36" fill="none" xmlns="http://www.w3.org/2000/svg">
<path d="M28.8403 17.6375C27.8533 18.6815 27.2073 20.7045 27.4023 22.1305L28.2943 28.5715C28.4913 29.9985 27.5933 30.6585 26.2983 30.0405L20.4473 27.2445C19.1523 26.6245 17.0393 26.6335 15.7473 27.2625L9.92133 30.1045C8.63033 30.7335 7.72833 30.0785 7.91433 28.6525L8.75733 22.2035C8.94333 20.7765 8.28233 18.7595 7.28733 17.7225L2.79333 13.0345C1.79733 11.9975 2.13834 10.9325 3.54834 10.6695L9.91833 9.48151C11.3283 9.21851 13.0343 7.96351 13.7113 6.69251L16.7623 0.955505C17.4373 -0.315495 18.5513 -0.318495 19.2353 0.946505L22.3303 6.65951C23.0163 7.92451 24.7303 9.16651 26.1443 9.41751L32.5223 10.5585C33.9343 10.8105 34.2833 11.8725 33.2963 12.9175L28.8403 17.6375V17.6375Z" fill="#FFAC33"/>
<path d="M9.78325 2.18049C10.8063 3.59349 12.2293 7.09749 11.5003 7.62749C10.7723 8.15849 7.89325 5.71749 6.87025 4.30449C5.84825 2.89149 5.93525 1.63649 6.73925 1.05049C7.54325 0.463492 8.75925 0.768492 9.78325 2.18049V2.18049ZM29.1313 4.30449C28.1093 5.71749 25.2303 8.15949 24.5003 7.62649C23.7713 7.09649 25.1953 3.59349 26.2193 2.18149C27.2423 0.767492 28.4573 0.462492 29.2623 1.05049C30.0653 1.63649 30.1523 2.89149 29.1313 4.30449ZM16.6253 33.2905C16.6243 31.5445 17.5233 27.8695 18.4263 27.8695C19.3233 27.8695 20.2243 31.5445 20.2233 33.2895C20.2233 35.0365 19.4193 36.0015 18.4233 35.9995C17.4293 36.0015 16.6253 35.0375 16.6253 33.2905ZM32.8043 24.0285C31.1493 23.4895 27.9463 21.4955 28.2253 20.6335C28.5023 19.7755 32.2623 20.0525 33.9153 20.5925C35.5703 21.1325 36.2363 22.1975 35.9283 23.1485C35.6203 24.0985 34.4593 24.5685 32.8043 24.0285V24.0285ZM2.08325 20.5935C3.73825 20.0535 7.49725 19.7765 7.77725 20.6375C8.05325 21.4945 4.84925 23.4915 3.19625 24.0295C1.54225 24.5695 0.378253 24.0995 0.0732527 23.1495C-0.234747 22.1995 0.427253 21.1345 2.08325 20.5935V20.5935Z" fill="#FFD983"/>
</svg>
