<svg width="24" height="24" viewBox="0 0 24 24" fill="none" xmlns="http://www.w3.org/2000/svg">
<path d="M16.6448 7.7625C16.6448 7.64465 16.5483 7.54822 16.4305 7.54822L14.6626 7.55625L12.0001 10.7304L9.34029 7.55893L7.56975 7.5509C7.4519 7.5509 7.35547 7.64465 7.35547 7.76518C7.35547 7.81608 7.37422 7.86429 7.40636 7.90447L10.8912 12.0563L7.40636 16.2054C7.37399 16.2446 7.35604 16.2938 7.35547 16.3446C7.35547 16.4625 7.4519 16.5589 7.56975 16.5589L9.34029 16.5509L12.0001 13.3768L14.6599 16.5482L16.4278 16.5563C16.5456 16.5563 16.6421 16.4625 16.6421 16.342C16.6421 16.2911 16.6233 16.2429 16.5912 16.2027L13.1117 12.0536L16.5965 7.90179C16.6287 7.86429 16.6448 7.8134 16.6448 7.7625Z" fill="#444444"/>
<path d="M12 0C5.37321 0 0 5.37321 0 12C0 18.6268 5.37321 24 12 24C18.6268 24 24 18.6268 24 12C24 5.37321 18.6268 0 12 0ZM12 21.9643C6.49821 21.9643 2.03571 17.5018 2.03571 12C2.03571 6.49821 6.49821 2.03571 12 2.03571C17.5018 2.03571 21.9643 6.49821 21.9643 12C21.9643 17.5018 17.5018 21.9643 12 21.9643Z" fill="#444444"/>
</svg>
