<svg width="37" height="37" viewBox="0 0 37 37" fill="none" xmlns="http://www.w3.org/2000/svg">
<path fill-rule="evenodd" clip-rule="evenodd" d="M24.2967 14.8271C24.4015 14.9316 24.4847 15.0558 24.5414 15.1925C24.5981 15.3292 24.6273 15.4757 24.6273 15.6237C24.6273 15.7717 24.5981 15.9182 24.5414 16.0549C24.4847 16.1916 24.4015 16.3158 24.2967 16.4203L17.5458 23.1713C17.4412 23.2761 17.3171 23.3592 17.1804 23.4159C17.0437 23.4727 16.8971 23.5019 16.7491 23.5019C16.6011 23.5019 16.4546 23.4727 16.3179 23.4159C16.1812 23.3592 16.057 23.2761 15.9525 23.1713L12.577 19.7958C12.4724 19.6912 12.3894 19.567 12.3328 19.4303C12.2762 19.2936 12.2471 19.1471 12.2471 18.9992C12.2471 18.8512 12.2762 18.7047 12.3328 18.5681C12.3894 18.4314 12.4724 18.3072 12.577 18.2026C12.6817 18.098 12.8058 18.015 12.9425 17.9584C13.0792 17.9017 13.2257 17.8726 13.3737 17.8726C13.5216 17.8726 13.6681 17.9017 13.8048 17.9584C13.9415 18.015 14.0657 18.098 14.1703 18.2026L16.7491 20.7837L22.7035 14.8271C22.808 14.7223 22.9322 14.6392 23.0689 14.5824C23.2056 14.5257 23.3521 14.4965 23.5001 14.4965C23.6481 14.4965 23.7947 14.5257 23.9314 14.5824C24.0681 14.6392 24.1922 14.7223 24.2967 14.8271Z" fill="white"/>
<path d="M24.1138 6.65167L22.0413 4.52737L23.6503 2.95664L25.05 4.3901L27.0528 4.36534C27.9197 4.35508 28.78 4.51827 29.5829 4.84531C30.3859 5.17235 31.1153 5.65664 31.7284 6.2697C32.3414 6.88276 32.8257 7.61222 33.1528 8.41517C33.4798 9.21812 33.643 10.0784 33.6327 10.9453L33.6102 12.9481L35.0414 14.3478C35.6613 14.9535 36.1539 15.677 36.4901 16.4758C36.8264 17.2746 36.9997 18.1325 36.9997 18.9992C36.9997 19.8659 36.8264 20.7238 36.4901 21.5226C36.1539 22.3214 35.6613 23.0449 35.0414 23.6506L33.608 25.0503L33.6327 27.0531C33.643 27.9201 33.4798 28.7803 33.1528 29.5833C32.8257 30.3862 32.3414 31.1157 31.7284 31.7287C31.1153 32.3418 30.3859 32.8261 29.5829 33.1531C28.78 33.4802 27.9197 33.6434 27.0528 33.6331L25.05 33.6106L23.6503 35.0418C23.0446 35.6617 22.321 36.1542 21.5223 36.4905C20.7235 36.8268 19.8655 37 18.9989 37C18.1322 37 17.2742 36.8268 16.4754 36.4905C15.6767 36.1542 14.9531 35.6617 14.3474 35.0418L12.9477 33.6083L10.9449 33.6331C10.078 33.6434 9.21776 33.4802 8.4148 33.1531C7.61185 32.8261 6.8824 32.3418 6.26934 31.7287C5.65627 31.1157 5.17198 30.3862 4.84494 29.5833C4.5179 28.7803 4.35472 27.9201 4.36498 27.0531L4.38748 25.0503L2.95627 23.6506C2.3364 23.0449 1.84385 22.3214 1.50756 21.5226C1.17128 20.7238 0.998047 19.8659 0.998047 18.9992C0.998047 18.1325 1.17128 17.2746 1.50756 16.4758C1.84385 15.677 2.3364 14.9535 2.95627 14.3478L4.38973 12.9481L4.36498 10.9453C4.35472 10.0784 4.5179 9.21812 4.84494 8.41517C5.17198 7.61222 5.65627 6.88276 6.26934 6.2697C6.8824 5.65664 7.61185 5.17235 8.4148 4.84531C9.21776 4.51827 10.078 4.35508 10.9449 4.36534L12.9477 4.38785L14.3474 2.95664C14.9531 2.33676 15.6767 1.84421 16.4754 1.50793C17.2742 1.17164 18.1322 0.998413 18.9989 0.998413C19.8655 0.998413 20.7235 1.17164 21.5223 1.50793C22.321 1.84421 23.0446 2.33676 23.6503 2.95664L22.0413 4.52737C21.6452 4.12183 21.1719 3.79958 20.6494 3.57956C20.127 3.35955 19.5658 3.24621 18.9989 3.24621C18.4319 3.24621 17.8707 3.35955 17.3483 3.57956C16.8258 3.79958 16.3526 4.12183 15.9564 4.52737L13.8861 6.65167L10.9157 6.61567C10.349 6.60933 9.78676 6.71631 9.26201 6.93033C8.73725 7.14434 8.26056 7.46106 7.85993 7.8619C7.45931 8.26273 7.14283 8.73959 6.92909 9.26446C6.71536 9.78933 6.60867 10.3516 6.6153 10.9183L6.65131 13.8842L4.527 15.9568C4.12146 16.3529 3.79921 16.8261 3.5792 17.3486C3.35918 17.8711 3.24584 18.4323 3.24584 18.9992C3.24584 19.5661 3.35918 20.1273 3.5792 20.6498C3.79921 21.1723 4.12146 21.6455 4.527 22.0417L6.65131 24.112L6.6153 27.0824C6.60897 27.6491 6.71595 28.2113 6.92996 28.7361C7.14397 29.2608 7.4607 29.7375 7.86153 30.1381C8.26237 30.5388 8.73923 30.8552 9.26409 31.069C9.78896 31.2827 10.3512 31.3894 10.9179 31.3828L13.8839 31.3468L15.9564 33.4711C16.3526 33.8766 16.8258 34.1989 17.3483 34.4189C17.8707 34.6389 18.4319 34.7522 18.9989 34.7522C19.5658 34.7522 20.127 34.6389 20.6494 34.4189C21.1719 34.1989 21.6452 33.8766 22.0413 33.4711L24.1116 31.3468L27.082 31.3828C27.6487 31.3891 28.2109 31.2821 28.7357 31.0681C29.2605 30.8541 29.7371 30.5374 30.1378 30.1365C30.5384 29.7357 30.8549 29.2588 31.0686 28.734C31.2823 28.2091 31.389 27.6468 31.3824 27.0801L31.3464 24.1142L33.4707 22.0417C33.8762 21.6455 34.1985 21.1723 34.4185 20.6498C34.6385 20.1273 34.7519 19.5661 34.7519 18.9992C34.7519 18.4323 34.6385 17.8711 34.4185 17.3486C34.1985 16.8261 33.8762 16.3529 33.4707 15.9568L31.3464 13.8865L31.3824 10.916C31.3887 10.3494 31.2818 9.78713 31.0677 9.26237C30.8537 8.73762 30.537 8.26093 30.1362 7.8603C29.7353 7.45968 29.2585 7.1432 28.7336 6.92946C28.2087 6.71572 27.6465 6.60904 27.0798 6.61567L24.1138 6.65167Z" fill="white"/>
</svg>
