<svg width="121" height="29" viewBox="0 0 121 29" fill="none" xmlns="http://www.w3.org/2000/svg">
<mask id="path-1-inside-1_452_922" fill="white">
<path d="M14.959 7.38956L10.4824 10.3173C10.1826 9.57124 9.18003 9.19819 7.47466 9.19819C7.08829 9.19819 6.69192 9.47464 6.28556 10.0276C5.8792 10.5805 5.67602 11.2033 5.67602 11.8961C5.70933 12.4224 5.86588 12.9287 6.14567 13.415C6.42546 13.8946 6.92175 14.1511 7.63454 14.1844C8.16747 14.1844 8.72704 14.0412 9.31327 13.7547C9.89949 13.4683 10.4058 12.8954 10.8321 12.036C10.8588 12.0893 11.1352 12.3391 11.6615 12.7855C12.1878 13.2318 12.724 13.6781 13.2703 14.1244C13.8232 14.5708 14.2295 14.9005 14.4893 15.1137C13.9831 16.3261 13.3136 17.2754 12.4809 17.9615C11.6482 18.6477 10.7755 19.1173 9.86285 19.3705C8.95021 19.6236 8.04423 19.7502 7.14491 19.7502C5.88587 19.7502 4.77671 19.5137 3.81743 19.0407C2.86482 18.5611 2.08208 17.745 1.46921 16.5926C0.856346 15.4335 0.483295 13.868 0.350063 11.8961C0.33674 11.703 0.330078 11.4098 0.330078 11.0168C0.330078 10.0309 0.446656 9.08494 0.679813 8.17896C0.906308 7.27298 1.27936 6.45693 1.79896 5.73081C2.32523 4.99804 3.04802 4.40182 3.96732 3.94217C4.88662 3.48252 5.99911 3.2427 7.30479 3.22272C8.1708 3.22272 9.02349 3.32597 9.86285 3.53248C10.7022 3.73233 11.4716 4.01545 12.1711 4.38184C12.8706 4.74157 13.4701 5.18456 13.9697 5.71083C14.476 6.23044 14.8058 6.79001 14.959 7.38956Z"/>
<path d="M26.6837 10.2574L23.1564 12.5556C22.9832 12.1093 22.75 11.7296 22.4569 11.4165C22.1705 11.0967 21.874 10.9369 21.5676 10.9369C21.1279 10.9369 20.7582 11.2833 20.4584 11.9761C20.172 12.6422 20.0287 13.808 20.0287 15.4734C20.0287 16.6392 20.0887 18.0115 20.2086 19.5903L15.3023 20.1599C15.0159 18.1014 14.8727 16.2662 14.8727 14.654C14.8727 14.3876 14.886 14.0212 14.9126 13.5549L14.7328 7.71931L18.6598 7.22968L19.2293 7.88918C19.6957 7.7293 20.1253 7.59274 20.5184 7.47949C20.9181 7.36624 21.2911 7.27631 21.6375 7.20969C21.9839 7.14308 22.3203 7.10977 22.6468 7.10977C23.3063 7.10977 23.8858 7.25966 24.3854 7.55943C25.0183 7.91249 25.5179 8.27888 25.8843 8.6586C26.2574 9.03831 26.5238 9.57124 26.6837 10.2574Z"/>
<path d="M26.7572 10.2574L30.7642 8.37881L34.7812 15.8232L37.2393 8.94837L41.6559 10.6671L34.2116 28.6734L30.2746 27.2045L32.5728 20.9793L26.7572 10.2574Z"/>
<path d="M46.6558 20.3897L47.1454 28.4336L42.6488 28.6734L41.9693 15.7033V15.6033C41.9427 15.2702 41.9293 15.0238 41.9293 14.8639L41.7495 11.3266L40.2706 11.6463L40.7602 9.19819L45.8364 7.0698L45.9663 8.90841C46.759 8.52869 47.5617 8.33884 48.3744 8.33884C49.3604 8.33884 50.3629 8.61863 51.3822 9.1782C51.8551 9.43134 52.2382 9.77442 52.5313 10.2074C52.8311 10.6338 53.0476 11.1167 53.1808 11.6563C53.3207 12.1893 53.3906 12.7455 53.3906 13.3251C53.3906 13.8047 53.3507 14.2677 53.2707 14.714C53.1975 15.1603 53.0942 15.57 52.961 15.9431C52.8277 16.3161 52.6712 16.6325 52.4913 16.8924C51.9317 17.7317 51.3222 18.4112 50.6627 18.9308C50.0032 19.4504 49.3404 19.8235 48.6742 20.05C48.0081 20.2765 47.3352 20.3897 46.6558 20.3897ZM46.1861 12.5956C46.1861 12.9687 46.2694 13.335 46.4359 13.6948C46.6091 14.0478 46.799 14.2943 47.0055 14.4342C47.5384 14.774 48.0447 14.9438 48.5243 14.9438C48.9973 14.9438 49.417 14.7873 49.7834 14.4742C50.1498 14.1544 50.4296 13.7481 50.6227 13.2551C50.8159 12.7555 50.9125 12.2625 50.9125 11.7762C50.9125 11.4432 50.8726 11.1367 50.7926 10.8569C50.6794 11.3632 50.4329 11.8095 50.0532 12.1959C49.6801 12.5823 49.3137 12.7755 48.954 12.7755C48.7741 12.7755 48.6143 12.7288 48.4744 12.6356C48.2745 12.4757 48.1746 12.1959 48.1746 11.7962C48.1746 11.4898 48.2745 11.1867 48.4744 10.8869C48.6809 10.5871 49.004 10.3506 49.4436 10.1774C48.904 10.1774 48.4044 10.294 47.9448 10.5272C47.4851 10.7537 47.0954 11.0568 46.7757 11.4365C46.4626 11.8162 46.266 12.2026 46.1861 12.5956Z"/>
<path d="M55.8624 2.48328L60.2291 0.514771L60.1591 7.22968L63.4166 7.30962V11.1567L60.0392 11.1967C59.9193 12.1426 59.8593 13.0319 59.8593 13.8646C59.8593 14.5575 59.8993 15.1304 59.9792 15.5833C60.0459 15.9564 60.2124 16.2428 60.4789 16.4427C60.7453 16.6425 61.0551 16.7425 61.4082 16.7425C61.8012 16.7425 62.1443 16.6259 62.4374 16.3927C62.7372 16.1596 62.887 15.8398 62.887 15.4335C62.887 15.3735 62.8737 15.2569 62.8471 15.0837L66.1146 12.9553C66.2545 13.2151 66.4277 13.6515 66.6342 14.2643C66.8474 14.8772 66.954 15.5467 66.954 16.2728C66.954 17.1455 66.7241 17.9349 66.2645 18.641C65.8048 19.3472 65.0188 19.8834 63.9063 20.2498C63.1269 20.5029 62.3907 20.6295 61.6979 20.6295C60.6521 20.6295 59.7294 20.3997 58.93 19.94C58.1373 19.4804 57.4778 18.9275 56.9515 18.2813C56.7051 17.9815 56.5119 17.4852 56.372 16.7924C56.2388 16.0996 56.1521 15.3768 56.1122 14.6241C56.0722 13.8713 56.0522 13.1185 56.0522 12.3658V11.2366L53.1045 11.3266L52.365 6.81999L56.0922 7.0698L55.8624 2.48328Z"/>
<path d="M77.2697 9.1782C77.7427 9.43134 78.1258 9.77442 78.4189 10.2074C78.7186 10.6338 78.9351 11.1167 79.0684 11.6563C79.2083 12.1893 79.2782 12.7455 79.2782 13.3251C79.2782 13.8047 79.2382 14.2677 79.1583 14.714C79.085 15.1603 78.9818 15.57 78.8485 15.9431C78.7153 16.3161 78.5588 16.6325 78.3789 16.8924C77.9592 17.5185 77.5096 18.0581 77.0299 18.5111C76.5503 18.9641 76.0606 19.3305 75.561 19.6103C75.0614 19.8834 74.5651 20.0833 74.0722 20.2098C73.5859 20.3431 73.1029 20.4097 72.6233 20.4097C72.057 20.4097 71.5174 20.3198 71.0045 20.1399C70.4982 19.9667 70.0652 19.7369 69.7055 19.4504C69.1126 18.9575 68.6496 18.2946 68.3165 17.4619C67.9834 16.6226 67.8169 15.7366 67.8169 14.8039C67.8169 13.1985 68.2799 11.9028 69.2058 10.9169C69.9986 10.0709 70.818 9.43467 71.664 9.00833C72.51 8.57532 73.376 8.35882 74.262 8.35882C74.7816 8.35882 75.2812 8.42544 75.7609 8.55867C76.2405 8.68524 76.7435 8.89175 77.2697 9.1782ZM76.6802 10.8569C76.5669 11.3632 76.3205 11.8095 75.9407 12.1959C75.5677 12.5823 75.2013 12.7755 74.8416 12.7755C74.6617 12.7755 74.5018 12.7288 74.3619 12.6356C74.1621 12.4757 74.0622 12.1959 74.0622 11.7962C74.0622 11.4898 74.1621 11.1867 74.3619 10.8869C74.5684 10.5871 74.8915 10.3506 75.3312 10.1774C74.8915 10.1774 74.4652 10.2607 74.0522 10.4273C73.6458 10.5938 73.2961 10.8103 73.003 11.0768C72.7099 11.3366 72.4734 11.633 72.2935 11.9661C72.1203 12.2925 72.0337 12.6223 72.0337 12.9553C72.0337 13.5749 72.3202 14.0678 72.8931 14.4342C73.426 14.774 73.9323 14.9438 74.4119 14.9438C74.8849 14.9438 75.3046 14.7873 75.6709 14.4742C76.0373 14.1544 76.3171 13.7481 76.5103 13.2551C76.7035 12.7555 76.8001 12.2625 76.8001 11.7762C76.8001 11.4432 76.7601 11.1367 76.6802 10.8569Z"/>
<path d="M81.3402 5.10129L86.2565 4.77154L87.5655 6.89993L88.7147 3.95216L91.9022 3.87222L95.6694 21.3889L89.8538 20.8194L88.7946 14.8439L87.6455 17.0522L86.0966 14.2743L85.597 19.3405L79.9513 19.7502L81.3402 5.10129Z"/>
<path d="M104.696 9.1782C105.169 9.43134 105.552 9.77442 105.845 10.2074C106.145 10.6338 106.362 11.1167 106.495 11.6563C106.635 12.1893 106.705 12.7455 106.705 13.3251C106.705 13.8047 106.665 14.2677 106.585 14.714C106.511 15.1603 106.408 15.57 106.275 15.9431C106.142 16.3161 105.985 16.6325 105.805 16.8924C105.386 17.5185 104.936 18.0581 104.456 18.5111C103.977 18.9641 103.487 19.3305 102.987 19.6103C102.488 19.8834 101.992 20.0833 101.499 20.2098C101.012 20.3431 100.529 20.4097 100.05 20.4097C99.4834 20.4097 98.9438 20.3198 98.4309 20.1399C97.9246 19.9667 97.4916 19.7369 97.1319 19.4504C96.539 18.9575 96.076 18.2946 95.7429 17.4619C95.4098 16.6226 95.2433 15.7366 95.2433 14.8039C95.2433 13.1985 95.7063 11.9028 96.6323 10.9169C97.425 10.0709 98.2444 9.43467 99.0904 9.00833C99.9364 8.57532 100.802 8.35882 101.688 8.35882C102.208 8.35882 102.708 8.42544 103.187 8.55867C103.667 8.68524 104.17 8.89175 104.696 9.1782ZM104.107 10.8569C103.993 11.3632 103.747 11.8095 103.367 12.1959C102.994 12.5823 102.628 12.7755 102.268 12.7755C102.088 12.7755 101.928 12.7288 101.788 12.6356C101.588 12.4757 101.489 12.1959 101.489 11.7962C101.489 11.4898 101.588 11.1867 101.788 10.8869C101.995 10.5871 102.318 10.3506 102.758 10.1774C102.318 10.1774 101.892 10.2607 101.479 10.4273C101.072 10.5938 100.722 10.8103 100.429 11.0768C100.136 11.3366 99.8998 11.633 99.7199 11.9661C99.5467 12.2925 99.4601 12.6223 99.4601 12.9553C99.4601 13.5749 99.7466 14.0678 100.319 14.4342C100.852 14.774 101.359 14.9438 101.838 14.9438C102.311 14.9438 102.731 14.7873 103.097 14.4742C103.464 14.1544 103.744 13.7481 103.937 13.2551C104.13 12.7555 104.226 12.2625 104.226 11.7762C104.226 11.4432 104.187 11.1367 104.107 10.8569Z"/>
<path d="M111.634 8.45875C112.374 8.21227 113.01 8.02574 113.543 7.89917C114.076 7.76594 114.586 7.69932 115.072 7.69932C115.725 7.69932 116.298 7.84255 116.791 8.129C117.383 8.46874 118.023 9.0483 118.709 9.86768C119.395 10.6871 119.822 11.4465 119.988 12.146C120.341 13.5649 120.518 14.8039 120.518 15.8631C120.518 16.4227 120.481 17.0123 120.408 17.6318C120.335 18.2447 120.221 19.0341 120.068 20L115.891 20.2498C115.905 19.9167 115.911 19.4371 115.911 18.8109C115.911 16.1995 115.552 13.9779 114.832 12.146C114.552 11.4598 114.279 11.1167 114.013 11.1167C113.666 11.1167 113.283 11.5964 112.864 12.5556C112.764 12.7888 112.68 13.0553 112.614 13.355C112.554 13.6548 112.507 13.9912 112.474 14.3643C112.447 14.7373 112.434 15.177 112.434 15.6833C112.434 16.7092 112.494 18.0115 112.614 19.5903L107.707 20.1599C107.628 19.5737 107.554 18.9908 107.488 18.4112C107.421 17.8316 107.368 17.2954 107.328 16.8024C107.294 16.3028 107.278 15.7665 107.278 15.1936C107.278 14.9472 107.291 14.5908 107.318 14.1244L107.138 8.29887L111.065 7.79925L111.634 8.45875Z"/>
</mask>
<path d="M14.959 7.38956L10.4824 10.3173C10.1826 9.57124 9.18003 9.19819 7.47466 9.19819C7.08829 9.19819 6.69192 9.47464 6.28556 10.0276C5.8792 10.5805 5.67602 11.2033 5.67602 11.8961C5.70933 12.4224 5.86588 12.9287 6.14567 13.415C6.42546 13.8946 6.92175 14.1511 7.63454 14.1844C8.16747 14.1844 8.72704 14.0412 9.31327 13.7547C9.89949 13.4683 10.4058 12.8954 10.8321 12.036C10.8588 12.0893 11.1352 12.3391 11.6615 12.7855C12.1878 13.2318 12.724 13.6781 13.2703 14.1244C13.8232 14.5708 14.2295 14.9005 14.4893 15.1137C13.9831 16.3261 13.3136 17.2754 12.4809 17.9615C11.6482 18.6477 10.7755 19.1173 9.86285 19.3705C8.95021 19.6236 8.04423 19.7502 7.14491 19.7502C5.88587 19.7502 4.77671 19.5137 3.81743 19.0407C2.86482 18.5611 2.08208 17.745 1.46921 16.5926C0.856346 15.4335 0.483295 13.868 0.350063 11.8961C0.33674 11.703 0.330078 11.4098 0.330078 11.0168C0.330078 10.0309 0.446656 9.08494 0.679813 8.17896C0.906308 7.27298 1.27936 6.45693 1.79896 5.73081C2.32523 4.99804 3.04802 4.40182 3.96732 3.94217C4.88662 3.48252 5.99911 3.2427 7.30479 3.22272C8.1708 3.22272 9.02349 3.32597 9.86285 3.53248C10.7022 3.73233 11.4716 4.01545 12.1711 4.38184C12.8706 4.74157 13.4701 5.18456 13.9697 5.71083C14.476 6.23044 14.8058 6.79001 14.959 7.38956Z" fill="#FFCB05"/>
<path d="M26.6837 10.2574L23.1564 12.5556C22.9832 12.1093 22.75 11.7296 22.4569 11.4165C22.1705 11.0967 21.874 10.9369 21.5676 10.9369C21.1279 10.9369 20.7582 11.2833 20.4584 11.9761C20.172 12.6422 20.0287 13.808 20.0287 15.4734C20.0287 16.6392 20.0887 18.0115 20.2086 19.5903L15.3023 20.1599C15.0159 18.1014 14.8727 16.2662 14.8727 14.654C14.8727 14.3876 14.886 14.0212 14.9126 13.5549L14.7328 7.71931L18.6598 7.22968L19.2293 7.88918C19.6957 7.7293 20.1253 7.59274 20.5184 7.47949C20.9181 7.36624 21.2911 7.27631 21.6375 7.20969C21.9839 7.14308 22.3203 7.10977 22.6468 7.10977C23.3063 7.10977 23.8858 7.25966 24.3854 7.55943C25.0183 7.91249 25.5179 8.27888 25.8843 8.6586C26.2574 9.03831 26.5238 9.57124 26.6837 10.2574Z" fill="#FFCB05"/>
<path d="M26.7572 10.2574L30.7642 8.37881L34.7812 15.8232L37.2393 8.94837L41.6559 10.6671L34.2116 28.6734L30.2746 27.2045L32.5728 20.9793L26.7572 10.2574Z" fill="#FFCB05"/>
<path d="M46.6558 20.3897L47.1454 28.4336L42.6488 28.6734L41.9693 15.7033V15.6033C41.9427 15.2702 41.9293 15.0238 41.9293 14.8639L41.7495 11.3266L40.2706 11.6463L40.7602 9.19819L45.8364 7.0698L45.9663 8.90841C46.759 8.52869 47.5617 8.33884 48.3744 8.33884C49.3604 8.33884 50.3629 8.61863 51.3822 9.1782C51.8551 9.43134 52.2382 9.77442 52.5313 10.2074C52.8311 10.6338 53.0476 11.1167 53.1808 11.6563C53.3207 12.1893 53.3906 12.7455 53.3906 13.3251C53.3906 13.8047 53.3507 14.2677 53.2707 14.714C53.1975 15.1603 53.0942 15.57 52.961 15.9431C52.8277 16.3161 52.6712 16.6325 52.4913 16.8924C51.9317 17.7317 51.3222 18.4112 50.6627 18.9308C50.0032 19.4504 49.3404 19.8235 48.6742 20.05C48.0081 20.2765 47.3352 20.3897 46.6558 20.3897ZM46.1861 12.5956C46.1861 12.9687 46.2694 13.335 46.4359 13.6948C46.6091 14.0478 46.799 14.2943 47.0055 14.4342C47.5384 14.774 48.0447 14.9438 48.5243 14.9438C48.9973 14.9438 49.417 14.7873 49.7834 14.4742C50.1498 14.1544 50.4296 13.7481 50.6227 13.2551C50.8159 12.7555 50.9125 12.2625 50.9125 11.7762C50.9125 11.4432 50.8726 11.1367 50.7926 10.8569C50.6794 11.3632 50.4329 11.8095 50.0532 12.1959C49.6801 12.5823 49.3137 12.7755 48.954 12.7755C48.7741 12.7755 48.6143 12.7288 48.4744 12.6356C48.2745 12.4757 48.1746 12.1959 48.1746 11.7962C48.1746 11.4898 48.2745 11.1867 48.4744 10.8869C48.6809 10.5871 49.004 10.3506 49.4436 10.1774C48.904 10.1774 48.4044 10.294 47.9448 10.5272C47.4851 10.7537 47.0954 11.0568 46.7757 11.4365C46.4626 11.8162 46.266 12.2026 46.1861 12.5956Z" fill="#FFCB05"/>
<path d="M55.8624 2.48328L60.2291 0.514771L60.1591 7.22968L63.4166 7.30962V11.1567L60.0392 11.1967C59.9193 12.1426 59.8593 13.0319 59.8593 13.8646C59.8593 14.5575 59.8993 15.1304 59.9792 15.5833C60.0459 15.9564 60.2124 16.2428 60.4789 16.4427C60.7453 16.6425 61.0551 16.7425 61.4082 16.7425C61.8012 16.7425 62.1443 16.6259 62.4374 16.3927C62.7372 16.1596 62.887 15.8398 62.887 15.4335C62.887 15.3735 62.8737 15.2569 62.8471 15.0837L66.1146 12.9553C66.2545 13.2151 66.4277 13.6515 66.6342 14.2643C66.8474 14.8772 66.954 15.5467 66.954 16.2728C66.954 17.1455 66.7241 17.9349 66.2645 18.641C65.8048 19.3472 65.0188 19.8834 63.9063 20.2498C63.1269 20.5029 62.3907 20.6295 61.6979 20.6295C60.6521 20.6295 59.7294 20.3997 58.93 19.94C58.1373 19.4804 57.4778 18.9275 56.9515 18.2813C56.7051 17.9815 56.5119 17.4852 56.372 16.7924C56.2388 16.0996 56.1521 15.3768 56.1122 14.6241C56.0722 13.8713 56.0522 13.1185 56.0522 12.3658V11.2366L53.1045 11.3266L52.365 6.81999L56.0922 7.0698L55.8624 2.48328Z" fill="#FFCB05"/>
<path d="M77.2697 9.1782C77.7427 9.43134 78.1258 9.77442 78.4189 10.2074C78.7186 10.6338 78.9351 11.1167 79.0684 11.6563C79.2083 12.1893 79.2782 12.7455 79.2782 13.3251C79.2782 13.8047 79.2382 14.2677 79.1583 14.714C79.085 15.1603 78.9818 15.57 78.8485 15.9431C78.7153 16.3161 78.5588 16.6325 78.3789 16.8924C77.9592 17.5185 77.5096 18.0581 77.0299 18.5111C76.5503 18.9641 76.0606 19.3305 75.561 19.6103C75.0614 19.8834 74.5651 20.0833 74.0722 20.2098C73.5859 20.3431 73.1029 20.4097 72.6233 20.4097C72.057 20.4097 71.5174 20.3198 71.0045 20.1399C70.4982 19.9667 70.0652 19.7369 69.7055 19.4504C69.1126 18.9575 68.6496 18.2946 68.3165 17.4619C67.9834 16.6226 67.8169 15.7366 67.8169 14.8039C67.8169 13.1985 68.2799 11.9028 69.2058 10.9169C69.9986 10.0709 70.818 9.43467 71.664 9.00833C72.51 8.57532 73.376 8.35882 74.262 8.35882C74.7816 8.35882 75.2812 8.42544 75.7609 8.55867C76.2405 8.68524 76.7435 8.89175 77.2697 9.1782ZM76.6802 10.8569C76.5669 11.3632 76.3205 11.8095 75.9407 12.1959C75.5677 12.5823 75.2013 12.7755 74.8416 12.7755C74.6617 12.7755 74.5018 12.7288 74.3619 12.6356C74.1621 12.4757 74.0622 12.1959 74.0622 11.7962C74.0622 11.4898 74.1621 11.1867 74.3619 10.8869C74.5684 10.5871 74.8915 10.3506 75.3312 10.1774C74.8915 10.1774 74.4652 10.2607 74.0522 10.4273C73.6458 10.5938 73.2961 10.8103 73.003 11.0768C72.7099 11.3366 72.4734 11.633 72.2935 11.9661C72.1203 12.2925 72.0337 12.6223 72.0337 12.9553C72.0337 13.5749 72.3202 14.0678 72.8931 14.4342C73.426 14.774 73.9323 14.9438 74.4119 14.9438C74.8849 14.9438 75.3046 14.7873 75.6709 14.4742C76.0373 14.1544 76.3171 13.7481 76.5103 13.2551C76.7035 12.7555 76.8001 12.2625 76.8001 11.7762C76.8001 11.4432 76.7601 11.1367 76.6802 10.8569Z" fill="#FFCB05"/>
<path d="M81.3402 5.10129L86.2565 4.77154L87.5655 6.89993L88.7147 3.95216L91.9022 3.87222L95.6694 21.3889L89.8538 20.8194L88.7946 14.8439L87.6455 17.0522L86.0966 14.2743L85.597 19.3405L79.9513 19.7502L81.3402 5.10129Z" fill="#FFCB05"/>
<path d="M104.696 9.1782C105.169 9.43134 105.552 9.77442 105.845 10.2074C106.145 10.6338 106.362 11.1167 106.495 11.6563C106.635 12.1893 106.705 12.7455 106.705 13.3251C106.705 13.8047 106.665 14.2677 106.585 14.714C106.511 15.1603 106.408 15.57 106.275 15.9431C106.142 16.3161 105.985 16.6325 105.805 16.8924C105.386 17.5185 104.936 18.0581 104.456 18.5111C103.977 18.9641 103.487 19.3305 102.987 19.6103C102.488 19.8834 101.992 20.0833 101.499 20.2098C101.012 20.3431 100.529 20.4097 100.05 20.4097C99.4834 20.4097 98.9438 20.3198 98.4309 20.1399C97.9246 19.9667 97.4916 19.7369 97.1319 19.4504C96.539 18.9575 96.076 18.2946 95.7429 17.4619C95.4098 16.6226 95.2433 15.7366 95.2433 14.8039C95.2433 13.1985 95.7063 11.9028 96.6323 10.9169C97.425 10.0709 98.2444 9.43467 99.0904 9.00833C99.9364 8.57532 100.802 8.35882 101.688 8.35882C102.208 8.35882 102.708 8.42544 103.187 8.55867C103.667 8.68524 104.17 8.89175 104.696 9.1782ZM104.107 10.8569C103.993 11.3632 103.747 11.8095 103.367 12.1959C102.994 12.5823 102.628 12.7755 102.268 12.7755C102.088 12.7755 101.928 12.7288 101.788 12.6356C101.588 12.4757 101.489 12.1959 101.489 11.7962C101.489 11.4898 101.588 11.1867 101.788 10.8869C101.995 10.5871 102.318 10.3506 102.758 10.1774C102.318 10.1774 101.892 10.2607 101.479 10.4273C101.072 10.5938 100.722 10.8103 100.429 11.0768C100.136 11.3366 99.8998 11.633 99.7199 11.9661C99.5467 12.2925 99.4601 12.6223 99.4601 12.9553C99.4601 13.5749 99.7466 14.0678 100.319 14.4342C100.852 14.774 101.359 14.9438 101.838 14.9438C102.311 14.9438 102.731 14.7873 103.097 14.4742C103.464 14.1544 103.744 13.7481 103.937 13.2551C104.13 12.7555 104.226 12.2625 104.226 11.7762C104.226 11.4432 104.187 11.1367 104.107 10.8569Z" fill="#FFCB05"/>
<path d="M111.634 8.45875C112.374 8.21227 113.01 8.02574 113.543 7.89917C114.076 7.76594 114.586 7.69932 115.072 7.69932C115.725 7.69932 116.298 7.84255 116.791 8.129C117.383 8.46874 118.023 9.0483 118.709 9.86768C119.395 10.6871 119.822 11.4465 119.988 12.146C120.341 13.5649 120.518 14.8039 120.518 15.8631C120.518 16.4227 120.481 17.0123 120.408 17.6318C120.335 18.2447 120.221 19.0341 120.068 20L115.891 20.2498C115.905 19.9167 115.911 19.4371 115.911 18.8109C115.911 16.1995 115.552 13.9779 114.832 12.146C114.552 11.4598 114.279 11.1167 114.013 11.1167C113.666 11.1167 113.283 11.5964 112.864 12.5556C112.764 12.7888 112.68 13.0553 112.614 13.355C112.554 13.6548 112.507 13.9912 112.474 14.3643C112.447 14.7373 112.434 15.177 112.434 15.6833C112.434 16.7092 112.494 18.0115 112.614 19.5903L107.707 20.1599C107.628 19.5737 107.554 18.9908 107.488 18.4112C107.421 17.8316 107.368 17.2954 107.328 16.8024C107.294 16.3028 107.278 15.7665 107.278 15.1936C107.278 14.9472 107.291 14.5908 107.318 14.1244L107.138 8.29887L111.065 7.79925L111.634 8.45875Z" fill="#FFCB05"/>
<path d="M14.959 7.38956L10.4824 10.3173C10.1826 9.57124 9.18003 9.19819 7.47466 9.19819C7.08829 9.19819 6.69192 9.47464 6.28556 10.0276C5.8792 10.5805 5.67602 11.2033 5.67602 11.8961C5.70933 12.4224 5.86588 12.9287 6.14567 13.415C6.42546 13.8946 6.92175 14.1511 7.63454 14.1844C8.16747 14.1844 8.72704 14.0412 9.31327 13.7547C9.89949 13.4683 10.4058 12.8954 10.8321 12.036C10.8588 12.0893 11.1352 12.3391 11.6615 12.7855C12.1878 13.2318 12.724 13.6781 13.2703 14.1244C13.8232 14.5708 14.2295 14.9005 14.4893 15.1137C13.9831 16.3261 13.3136 17.2754 12.4809 17.9615C11.6482 18.6477 10.7755 19.1173 9.86285 19.3705C8.95021 19.6236 8.04423 19.7502 7.14491 19.7502C5.88587 19.7502 4.77671 19.5137 3.81743 19.0407C2.86482 18.5611 2.08208 17.745 1.46921 16.5926C0.856346 15.4335 0.483295 13.868 0.350063 11.8961C0.33674 11.703 0.330078 11.4098 0.330078 11.0168C0.330078 10.0309 0.446656 9.08494 0.679813 8.17896C0.906308 7.27298 1.27936 6.45693 1.79896 5.73081C2.32523 4.99804 3.04802 4.40182 3.96732 3.94217C4.88662 3.48252 5.99911 3.2427 7.30479 3.22272C8.1708 3.22272 9.02349 3.32597 9.86285 3.53248C10.7022 3.73233 11.4716 4.01545 12.1711 4.38184C12.8706 4.74157 13.4701 5.18456 13.9697 5.71083C14.476 6.23044 14.8058 6.79001 14.959 7.38956Z" stroke="#222222" mask="url(#path-1-inside-1_452_922)"/>
<path d="M26.6837 10.2574L23.1564 12.5556C22.9832 12.1093 22.75 11.7296 22.4569 11.4165C22.1705 11.0967 21.874 10.9369 21.5676 10.9369C21.1279 10.9369 20.7582 11.2833 20.4584 11.9761C20.172 12.6422 20.0287 13.808 20.0287 15.4734C20.0287 16.6392 20.0887 18.0115 20.2086 19.5903L15.3023 20.1599C15.0159 18.1014 14.8727 16.2662 14.8727 14.654C14.8727 14.3876 14.886 14.0212 14.9126 13.5549L14.7328 7.71931L18.6598 7.22968L19.2293 7.88918C19.6957 7.7293 20.1253 7.59274 20.5184 7.47949C20.9181 7.36624 21.2911 7.27631 21.6375 7.20969C21.9839 7.14308 22.3203 7.10977 22.6468 7.10977C23.3063 7.10977 23.8858 7.25966 24.3854 7.55943C25.0183 7.91249 25.5179 8.27888 25.8843 8.6586C26.2574 9.03831 26.5238 9.57124 26.6837 10.2574Z" stroke="#222222" mask="url(#path-1-inside-1_452_922)"/>
<path d="M26.7572 10.2574L30.7642 8.37881L34.7812 15.8232L37.2393 8.94837L41.6559 10.6671L34.2116 28.6734L30.2746 27.2045L32.5728 20.9793L26.7572 10.2574Z" stroke="#222222" mask="url(#path-1-inside-1_452_922)"/>
<path d="M46.6558 20.3897L47.1454 28.4336L42.6488 28.6734L41.9693 15.7033V15.6033C41.9427 15.2702 41.9293 15.0238 41.9293 14.8639L41.7495 11.3266L40.2706 11.6463L40.7602 9.19819L45.8364 7.0698L45.9663 8.90841C46.759 8.52869 47.5617 8.33884 48.3744 8.33884C49.3604 8.33884 50.3629 8.61863 51.3822 9.1782C51.8551 9.43134 52.2382 9.77442 52.5313 10.2074C52.8311 10.6338 53.0476 11.1167 53.1808 11.6563C53.3207 12.1893 53.3906 12.7455 53.3906 13.3251C53.3906 13.8047 53.3507 14.2677 53.2707 14.714C53.1975 15.1603 53.0942 15.57 52.961 15.9431C52.8277 16.3161 52.6712 16.6325 52.4913 16.8924C51.9317 17.7317 51.3222 18.4112 50.6627 18.9308C50.0032 19.4504 49.3404 19.8235 48.6742 20.05C48.0081 20.2765 47.3352 20.3897 46.6558 20.3897ZM46.1861 12.5956C46.1861 12.9687 46.2694 13.335 46.4359 13.6948C46.6091 14.0478 46.799 14.2943 47.0055 14.4342C47.5384 14.774 48.0447 14.9438 48.5243 14.9438C48.9973 14.9438 49.417 14.7873 49.7834 14.4742C50.1498 14.1544 50.4296 13.7481 50.6227 13.2551C50.8159 12.7555 50.9125 12.2625 50.9125 11.7762C50.9125 11.4432 50.8726 11.1367 50.7926 10.8569C50.6794 11.3632 50.4329 11.8095 50.0532 12.1959C49.6801 12.5823 49.3137 12.7755 48.954 12.7755C48.7741 12.7755 48.6143 12.7288 48.4744 12.6356C48.2745 12.4757 48.1746 12.1959 48.1746 11.7962C48.1746 11.4898 48.2745 11.1867 48.4744 10.8869C48.6809 10.5871 49.004 10.3506 49.4436 10.1774C48.904 10.1774 48.4044 10.294 47.9448 10.5272C47.4851 10.7537 47.0954 11.0568 46.7757 11.4365C46.4626 11.8162 46.266 12.2026 46.1861 12.5956Z" stroke="#222222" mask="url(#path-1-inside-1_452_922)"/>
<path d="M55.8624 2.48328L60.2291 0.514771L60.1591 7.22968L63.4166 7.30962V11.1567L60.0392 11.1967C59.9193 12.1426 59.8593 13.0319 59.8593 13.8646C59.8593 14.5575 59.8993 15.1304 59.9792 15.5833C60.0459 15.9564 60.2124 16.2428 60.4789 16.4427C60.7453 16.6425 61.0551 16.7425 61.4082 16.7425C61.8012 16.7425 62.1443 16.6259 62.4374 16.3927C62.7372 16.1596 62.887 15.8398 62.887 15.4335C62.887 15.3735 62.8737 15.2569 62.8471 15.0837L66.1146 12.9553C66.2545 13.2151 66.4277 13.6515 66.6342 14.2643C66.8474 14.8772 66.954 15.5467 66.954 16.2728C66.954 17.1455 66.7241 17.9349 66.2645 18.641C65.8048 19.3472 65.0188 19.8834 63.9063 20.2498C63.1269 20.5029 62.3907 20.6295 61.6979 20.6295C60.6521 20.6295 59.7294 20.3997 58.93 19.94C58.1373 19.4804 57.4778 18.9275 56.9515 18.2813C56.7051 17.9815 56.5119 17.4852 56.372 16.7924C56.2388 16.0996 56.1521 15.3768 56.1122 14.6241C56.0722 13.8713 56.0522 13.1185 56.0522 12.3658V11.2366L53.1045 11.3266L52.365 6.81999L56.0922 7.0698L55.8624 2.48328Z" stroke="#222222" mask="url(#path-1-inside-1_452_922)"/>
<path d="M77.2697 9.1782C77.7427 9.43134 78.1258 9.77442 78.4189 10.2074C78.7186 10.6338 78.9351 11.1167 79.0684 11.6563C79.2083 12.1893 79.2782 12.7455 79.2782 13.3251C79.2782 13.8047 79.2382 14.2677 79.1583 14.714C79.085 15.1603 78.9818 15.57 78.8485 15.9431C78.7153 16.3161 78.5588 16.6325 78.3789 16.8924C77.9592 17.5185 77.5096 18.0581 77.0299 18.5111C76.5503 18.9641 76.0606 19.3305 75.561 19.6103C75.0614 19.8834 74.5651 20.0833 74.0722 20.2098C73.5859 20.3431 73.1029 20.4097 72.6233 20.4097C72.057 20.4097 71.5174 20.3198 71.0045 20.1399C70.4982 19.9667 70.0652 19.7369 69.7055 19.4504C69.1126 18.9575 68.6496 18.2946 68.3165 17.4619C67.9834 16.6226 67.8169 15.7366 67.8169 14.8039C67.8169 13.1985 68.2799 11.9028 69.2058 10.9169C69.9986 10.0709 70.818 9.43467 71.664 9.00833C72.51 8.57532 73.376 8.35882 74.262 8.35882C74.7816 8.35882 75.2812 8.42544 75.7609 8.55867C76.2405 8.68524 76.7435 8.89175 77.2697 9.1782ZM76.6802 10.8569C76.5669 11.3632 76.3205 11.8095 75.9407 12.1959C75.5677 12.5823 75.2013 12.7755 74.8416 12.7755C74.6617 12.7755 74.5018 12.7288 74.3619 12.6356C74.1621 12.4757 74.0622 12.1959 74.0622 11.7962C74.0622 11.4898 74.1621 11.1867 74.3619 10.8869C74.5684 10.5871 74.8915 10.3506 75.3312 10.1774C74.8915 10.1774 74.4652 10.2607 74.0522 10.4273C73.6458 10.5938 73.2961 10.8103 73.003 11.0768C72.7099 11.3366 72.4734 11.633 72.2935 11.9661C72.1203 12.2925 72.0337 12.6223 72.0337 12.9553C72.0337 13.5749 72.3202 14.0678 72.8931 14.4342C73.426 14.774 73.9323 14.9438 74.4119 14.9438C74.8849 14.9438 75.3046 14.7873 75.6709 14.4742C76.0373 14.1544 76.3171 13.7481 76.5103 13.2551C76.7035 12.7555 76.8001 12.2625 76.8001 11.7762C76.8001 11.4432 76.7601 11.1367 76.6802 10.8569Z" stroke="#222222" mask="url(#path-1-inside-1_452_922)"/>
<path d="M81.3402 5.10129L86.2565 4.77154L87.5655 6.89993L88.7147 3.95216L91.9022 3.87222L95.6694 21.3889L89.8538 20.8194L88.7946 14.8439L87.6455 17.0522L86.0966 14.2743L85.597 19.3405L79.9513 19.7502L81.3402 5.10129Z" stroke="#222222" mask="url(#path-1-inside-1_452_922)"/>
<path d="M104.696 9.1782C105.169 9.43134 105.552 9.77442 105.845 10.2074C106.145 10.6338 106.362 11.1167 106.495 11.6563C106.635 12.1893 106.705 12.7455 106.705 13.3251C106.705 13.8047 106.665 14.2677 106.585 14.714C106.511 15.1603 106.408 15.57 106.275 15.9431C106.142 16.3161 105.985 16.6325 105.805 16.8924C105.386 17.5185 104.936 18.0581 104.456 18.5111C103.977 18.9641 103.487 19.3305 102.987 19.6103C102.488 19.8834 101.992 20.0833 101.499 20.2098C101.012 20.3431 100.529 20.4097 100.05 20.4097C99.4834 20.4097 98.9438 20.3198 98.4309 20.1399C97.9246 19.9667 97.4916 19.7369 97.1319 19.4504C96.539 18.9575 96.076 18.2946 95.7429 17.4619C95.4098 16.6226 95.2433 15.7366 95.2433 14.8039C95.2433 13.1985 95.7063 11.9028 96.6323 10.9169C97.425 10.0709 98.2444 9.43467 99.0904 9.00833C99.9364 8.57532 100.802 8.35882 101.688 8.35882C102.208 8.35882 102.708 8.42544 103.187 8.55867C103.667 8.68524 104.17 8.89175 104.696 9.1782ZM104.107 10.8569C103.993 11.3632 103.747 11.8095 103.367 12.1959C102.994 12.5823 102.628 12.7755 102.268 12.7755C102.088 12.7755 101.928 12.7288 101.788 12.6356C101.588 12.4757 101.489 12.1959 101.489 11.7962C101.489 11.4898 101.588 11.1867 101.788 10.8869C101.995 10.5871 102.318 10.3506 102.758 10.1774C102.318 10.1774 101.892 10.2607 101.479 10.4273C101.072 10.5938 100.722 10.8103 100.429 11.0768C100.136 11.3366 99.8998 11.633 99.7199 11.9661C99.5467 12.2925 99.4601 12.6223 99.4601 12.9553C99.4601 13.5749 99.7466 14.0678 100.319 14.4342C100.852 14.774 101.359 14.9438 101.838 14.9438C102.311 14.9438 102.731 14.7873 103.097 14.4742C103.464 14.1544 103.744 13.7481 103.937 13.2551C104.13 12.7555 104.226 12.2625 104.226 11.7762C104.226 11.4432 104.187 11.1367 104.107 10.8569Z" stroke="#222222" mask="url(#path-1-inside-1_452_922)"/>
<path d="M111.634 8.45875C112.374 8.21227 113.01 8.02574 113.543 7.89917C114.076 7.76594 114.586 7.69932 115.072 7.69932C115.725 7.69932 116.298 7.84255 116.791 8.129C117.383 8.46874 118.023 9.0483 118.709 9.86768C119.395 10.6871 119.822 11.4465 119.988 12.146C120.341 13.5649 120.518 14.8039 120.518 15.8631C120.518 16.4227 120.481 17.0123 120.408 17.6318C120.335 18.2447 120.221 19.0341 120.068 20L115.891 20.2498C115.905 19.9167 115.911 19.4371 115.911 18.8109C115.911 16.1995 115.552 13.9779 114.832 12.146C114.552 11.4598 114.279 11.1167 114.013 11.1167C113.666 11.1167 113.283 11.5964 112.864 12.5556C112.764 12.7888 112.68 13.0553 112.614 13.355C112.554 13.6548 112.507 13.9912 112.474 14.3643C112.447 14.7373 112.434 15.177 112.434 15.6833C112.434 16.7092 112.494 18.0115 112.614 19.5903L107.707 20.1599C107.628 19.5737 107.554 18.9908 107.488 18.4112C107.421 17.8316 107.368 17.2954 107.328 16.8024C107.294 16.3028 107.278 15.7665 107.278 15.1936C107.278 14.9472 107.291 14.5908 107.318 14.1244L107.138 8.29887L111.065 7.79925L111.634 8.45875Z" stroke="#222222" mask="url(#path-1-inside-1_452_922)"/>
</svg>
