<svg width="8" height="14" viewBox="0 0 8 14" fill="none" xmlns="http://www.w3.org/2000/svg">
<path d="M2.01611 0.314106C2.04048 0.223399 2.09107 0.14377 2.16029 0.0871448C2.22951 0.0305192 2.31364 -5.52848e-05 2.40008 7.50457e-08H5.59988C5.66322 5.26663e-05 5.72565 0.0165593 5.78201 0.048161C5.83838 0.0797627 5.88708 0.125556 5.92411 0.181771C5.96113 0.237985 5.98542 0.303014 5.99497 0.371503C6.00453 0.439993 5.99907 0.509984 5.97905 0.575716L4.55514 5.24969H7.59975C7.67465 5.24963 7.74806 5.27258 7.81162 5.31592C7.87519 5.35926 7.92635 5.42125 7.95927 5.49484C7.9922 5.56842 8.00558 5.65064 7.99788 5.73213C7.99018 5.81362 7.96172 5.89111 7.91573 5.95577L2.31609 13.8303C2.25872 13.9114 2.17716 13.9678 2.08562 13.9898C1.99409 14.0118 1.8984 13.9979 1.81525 13.9507C1.73211 13.9034 1.66678 13.8256 1.63068 13.731C1.59458 13.6364 1.59 13.531 1.61773 13.4331L3.05844 8.31201H0.400209C0.338024 8.31205 0.276688 8.29623 0.221071 8.2658C0.165454 8.23538 0.117088 8.1912 0.0798152 8.13675C0.0425419 8.08231 0.0173879 8.01911 0.0063507 7.95218C-0.00468647 7.88525 -0.00130278 7.81642 0.0162332 7.75116L2.01611 0.314106ZM2.69926 0.874948L0.934575 7.43706H3.6C3.6626 7.43704 3.72432 7.4531 3.78021 7.48393C3.8361 7.51476 3.88459 7.55951 3.92178 7.61458C3.95898 7.66964 3.98384 7.73349 3.99436 7.80098C4.00489 7.86846 4.00078 7.93771 3.98238 8.00315L3.02404 11.4093L6.7822 6.12464H3.99998C3.93664 6.12458 3.87421 6.10808 3.81784 6.07648C3.76147 6.04487 3.71277 5.99908 3.67575 5.94287C3.63872 5.88665 3.61443 5.82162 3.60488 5.75313C3.59533 5.68464 3.60079 5.61465 3.6208 5.54892L5.04471 0.874948H2.69926Z" fill="black"/>
</svg>
