<svg width="130" height="26" viewBox="0 0 130 26" fill="none" xmlns="http://www.w3.org/2000/svg">
<path d="M7.56578 22.5381L3.0592 22.7879L2.15988 5.43105L0.690993 5.7608L1.18062 3.30266L6.25677 1.17428L7.56578 22.5381ZM24.9238 5.02136C26.5026 6.22711 27.292 7.83589 27.292 9.8477C27.292 10.5405 27.1921 11.2566 26.9922 11.9961C26.7991 12.7288 26.5259 13.4316 26.1729 14.1045C25.8198 14.7773 25.4301 15.3768 25.0038 15.9031C24.3043 16.7691 23.6115 17.4986 22.9253 18.0914C22.2458 18.6843 21.5597 19.1673 20.8669 19.5403C20.1741 19.9067 19.5046 20.1732 18.8584 20.3397C18.2122 20.5063 17.5794 20.5896 16.9599 20.5896C15.5209 20.5896 14.2186 20.2032 13.0528 19.4304C12.2667 18.8975 11.6139 18.0648 11.0943 16.9323C10.5814 15.7999 10.3249 14.5841 10.3249 13.2851C10.3249 11.2 10.9877 9.40137 12.3134 7.88918C13.0928 6.99653 13.9122 6.2038 14.7715 5.51099C15.6309 4.81818 16.5202 4.27526 17.4395 3.88222C18.3588 3.48253 19.2981 3.28268 20.2574 3.28268C21.8362 3.28268 23.3916 3.86224 24.9238 5.02136ZM22.9553 7.5994C22.8221 8.3455 22.5523 8.9617 22.1459 9.448C21.7396 9.9343 21.3199 10.1774 20.8869 10.1774C20.6138 10.1774 20.3773 10.0742 20.1774 9.86768C20.0708 9.7611 19.9809 9.60122 19.9076 9.38805C19.841 9.17488 19.8077 8.96837 19.8077 8.76852C19.8077 8.36216 19.9276 7.96246 20.1674 7.56943C20.4139 7.16973 20.8036 6.82333 21.3365 6.53021C20.697 6.53021 20.1508 6.6801 19.6978 6.97987C19.2515 7.27298 18.9217 7.64937 18.7085 8.10902C18.4954 8.56867 18.3888 9.04497 18.3888 9.53793C18.3888 10.3107 18.6153 10.8769 19.0683 11.2366C19.6145 11.6763 20.1608 11.8961 20.707 11.8961C21.3798 11.8961 21.9461 11.5964 22.4057 10.9968C22.8654 10.3973 23.0952 9.65451 23.0952 8.76852C23.0952 8.3555 23.0486 7.96579 22.9553 7.5994ZM36.6261 1.58397L46.4487 25.236L42.2719 25.6457L37.6054 14.764L34.9874 14.3543L30.9005 23.0277L25.7344 23.2775L36.6261 1.58397ZM35.1573 11.9761L37.5255 12.3058L36.5462 8.45875L35.1573 11.9761ZM54.1441 6.33037C53.5911 6.13718 53.1515 6.04059 52.8251 6.04059C52.3721 6.04059 51.9357 6.19047 51.5161 6.49024L52.0157 15.5833C53.1415 15.0971 53.8909 14.6174 54.264 14.1444C54.6437 13.6648 54.8735 13.2684 54.9534 12.9553C55.0201 12.8088 55.0867 12.4457 55.1533 11.8662C55.2266 11.2866 55.2632 10.6404 55.2632 9.92764C55.2632 8.99501 55.1766 8.19895 55.0034 7.53945C54.8369 6.87329 54.5504 6.47026 54.1441 6.33037ZM58.0711 4.53173C58.3842 5.15792 58.644 5.80743 58.8505 6.48025C59.0637 7.14641 59.2169 7.81258 59.3101 8.47874C59.4101 9.1449 59.46 9.80107 59.46 10.4472C59.46 11.6064 59.3035 12.7189 58.9904 13.7847C58.6839 14.8506 58.241 15.8065 57.6614 16.6525C57.0818 17.4919 56.379 18.1747 55.553 18.701C54.7336 19.2273 53.8243 19.5503 52.8251 19.6703L48.6582 20.4097L47.2593 7.55943C47.2126 7.55943 47.0494 7.73597 46.7696 8.08903C46.4899 8.4421 46.3267 8.61863 46.28 8.61863C46.1335 8.51871 46.0036 8.23559 45.8903 7.76927C45.7837 7.30296 45.6272 6.57685 45.4207 5.59093C45.2208 4.60501 45.0709 4.00546 44.971 3.79229C46.5098 3.29267 47.9587 2.88964 49.3177 2.58321C50.6767 2.27011 51.9424 2.11356 53.1148 2.11356C55.6329 2.11356 57.285 2.91962 58.0711 4.53173ZM69.1239 15.4135L74.2 15.4934L74.1201 19.8401H62.0892L62.5789 15.993L65.3667 15.9031L65.7664 7.22968L61.4297 7.96912L61.6795 3.22272L73.7904 1.41409L74.0402 5.7608L69.8633 6.58018L69.1239 15.4135ZM81.9754 1.17428L84.5934 7.79925L84.0238 1.74384L90.2391 1.99365L90.409 24.4167L86.7218 24.6665L82.9546 14.0245L83.0346 22.7879L78.2882 22.8678L77.7186 3.71235L75.9999 3.30266L75.9199 0.764587L81.9754 1.17428ZM100.393 13.9446L99.6531 13.6148L100.802 10.9968L106.448 13.1252L105.139 24.1768L100.063 23.7671C100.243 23.2209 100.496 22.4382 100.822 21.4189C101.149 20.4064 101.359 19.7435 101.452 19.4304C101.019 19.6436 100.146 19.7502 98.8338 19.7502C97.5747 19.7502 96.4656 19.5137 95.5063 19.0407C94.5537 18.5611 93.7709 17.745 93.1581 16.5926C92.5452 15.4335 92.1722 13.868 92.0389 11.8961C92.0256 11.703 92.0189 11.4098 92.0189 11.0168C92.0189 10.0309 92.1355 9.08494 92.3687 8.17896C92.5952 7.27298 92.9682 6.45694 93.4878 5.73082C94.0141 4.99804 94.7369 4.40183 95.6562 3.94218C96.5755 3.48253 97.688 3.24271 98.9936 3.22272C99.8597 3.22272 100.712 3.32598 101.552 3.53249C102.391 3.73234 103.16 4.01545 103.86 4.38184C104.559 4.74157 105.159 5.18457 105.659 5.71084C106.165 6.23044 106.495 6.79002 106.648 7.38956L102.171 10.3173C101.871 9.57124 100.869 9.19819 99.1635 9.19819C98.7771 9.19819 98.3808 9.47465 97.9744 10.0276C97.5681 10.5805 97.3649 11.2033 97.3649 11.8961C97.3982 12.4224 97.5547 12.9287 97.8345 13.415C98.1143 13.8946 98.6106 14.1511 99.3234 14.1844C99.3834 14.1844 99.4866 14.1678 99.6332 14.1344C99.7864 14.0945 99.9196 14.0612 100.033 14.0345C100.153 14.0012 100.273 13.9712 100.393 13.9446ZM110.676 15.8232C111.149 15.8232 111.555 15.9031 111.895 16.063C112.241 16.2162 112.525 16.4061 112.744 16.6326C112.964 16.8524 113.114 17.0456 113.194 17.2121C113.274 17.3986 113.314 17.5985 113.314 17.8117C113.314 18.1381 113.244 18.4678 113.104 18.8009C112.964 19.1273 112.791 19.4171 112.585 19.6703C112.385 19.9167 112.198 20.0533 112.025 20.0799C111.665 20.1332 111.405 20.1599 111.246 20.1599C110.586 20.1599 110.056 19.99 109.657 19.6503C109.264 19.3039 109.031 18.8342 108.957 18.2413C108.957 17.6684 109.094 17.1355 109.367 16.6425C109.647 16.1496 110.083 15.8765 110.676 15.8232ZM118.661 15.8232C119.134 15.8232 119.54 15.9031 119.88 16.063C120.227 16.2162 120.51 16.4061 120.73 16.6326C120.949 16.8524 121.099 17.0456 121.179 17.2121C121.259 17.3986 121.299 17.5985 121.299 17.8117C121.299 18.1381 121.229 18.4678 121.089 18.8009C120.949 19.1273 120.776 19.4171 120.57 19.6703C120.37 19.9167 120.183 20.0533 120.01 20.0799C119.65 20.1332 119.391 20.1599 119.231 20.1599C118.571 20.1599 118.042 19.99 117.642 19.6503C117.249 19.3039 117.016 18.8342 116.942 18.2413C116.942 17.6684 117.079 17.1355 117.352 16.6425C117.632 16.1496 118.068 15.8765 118.661 15.8232ZM126.646 15.8232C127.119 15.8232 127.526 15.9031 127.865 16.063C128.212 16.2162 128.495 16.4061 128.715 16.6326C128.935 16.8524 129.084 17.0456 129.164 17.2121C129.244 17.3986 129.284 17.5985 129.284 17.8117C129.284 18.1381 129.214 18.4678 129.074 18.8009C128.935 19.1273 128.761 19.4171 128.555 19.6703C128.355 19.9167 128.168 20.0533 127.995 20.0799C127.636 20.1332 127.376 20.1599 127.216 20.1599C126.556 20.1599 126.027 19.99 125.627 19.6503C125.234 19.3039 125.001 18.8342 124.928 18.2413C124.928 17.6684 125.064 17.1355 125.337 16.6425C125.617 16.1496 126.053 15.8765 126.646 15.8232Z" fill="white"/>
</svg>
